<?xml version="1.0" encoding="utf-8"?>
<svg xmlns="http://www.w3.org/2000/svg" version="1.1" id="svg2" width="550" height="550" viewBox="16.833 25.324 550 550" xmlns:bx="https://boxy-svg.com">
  <defs id="defs6">
    <bx:export>
      <bx:file format="svg" href="#g10" normalization="{&quot;resetTransformOrigins&quot;:true}"/>
      <bx:file format="svg" path="Untitled 2.svg"/>
    </bx:export>
  </defs>
  <g id="g10" transform="matrix(1.333333, 0, 0, -1.333333, 14.833002, 637.476154)">
    <g>
      <g transform="matrix(0.1, 0, 0, 0.1, 0, 95.410045)"/>
      <g transform="matrix(1, 0, 0, 1, 0, 98.285609)">
        <circle cx="287.519" cy="-235.59" r="17.989" transform="matrix(3.853229, 0, 0, -3.584816, -793.310876, -590.290118)" style="paint-order: stroke; stroke: rgb(255, 255, 255); fill: rgb(255, 255, 255);"/>
        <circle cx="67.57" cy="-294.48" r="17.989" transform="matrix(3.48739, 0, 0, -3.553035, -133.80875, -792.160729)" style="stroke-miterlimit: 4.63; stroke-width: 0px; paint-order: stroke; stroke: rgb(255, 255, 255); fill: rgb(255, 255, 255);"/>
      </g>
      <g id="g12" transform="matrix(0.1, 0, 0, 0.1, 0, 98.285609)" style="fill:#03a9f4;fill-opacity:1">
        <g id="g4515" transform="translate(207.08505,1265.7305)">
          <path id="path26" style="fill:#03a9f4;fill-opacity:1;fill-rule:nonzero;stroke:none" d="m 675.883,830 h 250 v 870 h -250 z"/>
          <path id="path28" style="fill:#03a9f4;fill-opacity:1;fill-rule:nonzero;stroke:none" d="m 2929.06,654.859 c -335.29,0 -608.05,272.77 -608.05,608.051 0,335.28 272.76,608.05 608.05,608.05 335.28,0 608.04,-272.77 608.04,-608.05 0,-335.281 -272.76,-608.051 -608.04,-608.051 z m -2117.29,0 c -335.286,0 -608.047,272.77 -608.047,608.051 0,335.28 272.761,608.05 608.047,608.05 335.28,0 608.04,-272.77 608.04,-608.05 0,-335.281 -272.76,-608.051 -608.04,-608.051 z M 2929.06,2059.68 c -406.46,0 -742.57,-305.99 -790.64,-699.68 h -536.01 c -48.07,393.69 -384.18,699.68 -790.64,699.68 C 372.426,2059.68 15,1702.26 15,1262.91 15,823.57 372.426,466.141 811.77,466.141 c 407.9,0 744.99,308.168 791.17,703.859 h 534.95 c 46.18,-395.691 383.27,-703.859 791.17,-703.859 439.34,0 796.77,357.429 796.77,796.769 0,439.35 -357.43,796.77 -796.77,796.77"/>
          <path id="path30" style="fill:#03a9f4;fill-opacity:1;fill-rule:nonzero;stroke:none" d="m 2914.06,1077.7 c -102.13,0 -185.22,83.08 -185.22,185.21 0,102.13 83.09,185.22 185.22,185.22 102.13,0 185.21,-83.09 185.21,-185.22 0,-102.13 -83.08,-185.21 -185.21,-185.21 z m 0,622.06 c -240.88,0 -436.85,-195.98 -436.85,-436.85 0,-240.88 195.97,-436.84 436.85,-436.84 240.88,0 436.84,195.96 436.84,436.84 0,240.87 -195.96,436.85 -436.84,436.85"/>
        </g>
        <rect x="322.418" y="-1436.1" width="3458.81" height="1601.3" rx="181.737" ry="181.737" style="paint-order: fill; stroke-linejoin: round; stroke-width: 105px; stroke-dashoffset: -3px; fill: rgb(255, 255, 255); stroke: rgb(102, 102, 102);" transform="matrix(1, 0, 0, -1, 0, 0)"/>
        <path d="M 1756.681 -832.194 Q 1756.681 -689.108 1659.035 -612.087 Q 1561.388 -535.065 1379.63 -535.065 L 1268.771 -535.065 L 1268.771 -164.46 L 1159.201 -164.46 L 1159.201 -1106.765 L 1403.478 -1106.765 Q 1756.681 -1106.765 1756.681 -832.194 Z M 1268.771 -629.167 L 1367.384 -629.167 Q 1513.048 -629.167 1578.146 -676.218 Q 1643.244 -723.269 1643.244 -827.038 Q 1643.244 -920.495 1582.013 -966.257 Q 1520.783 -1012.019 1391.232 -1012.019 L 1268.771 -1012.019 Z M 2239.992 -883.757 Q 2287.043 -883.757 2324.425 -876.023 L 2309.601 -776.765 Q 2265.773 -786.433 2232.257 -786.433 Q 2146.535 -786.433 2085.627 -716.823 Q 2024.718 -647.214 2024.718 -543.444 L 2024.718 -164.46 L 1917.726 -164.46 L 1917.726 -870.866 L 2006.027 -870.866 L 2018.273 -740.026 L 2023.429 -740.026 Q 2062.746 -808.991 2118.175 -846.374 Q 2173.605 -883.757 2239.992 -883.757 Z M 3033.081 -518.308 Q 3033.081 -345.573 2946.069 -248.571 Q 2859.057 -151.569 2705.659 -151.569 Q 2610.913 -151.569 2537.436 -196.042 Q 2463.959 -240.515 2423.999 -323.659 Q 2384.038 -406.804 2384.038 -518.308 Q 2384.038 -691.042 2470.405 -787.399 Q 2556.772 -883.757 2710.17 -883.757 Q 2858.413 -883.757 2945.747 -785.144 Q 3033.081 -686.53 3033.081 -518.308 Z M 2494.897 -518.308 Q 2494.897 -382.956 2549.038 -312.058 Q 2603.178 -241.159 2708.237 -241.159 Q 2813.295 -241.159 2867.758 -311.735 Q 2922.221 -382.312 2922.221 -518.308 Q 2922.221 -653.015 2867.758 -722.946 Q 2813.295 -792.878 2706.948 -792.878 Q 2601.889 -792.878 2548.393 -723.913 Q 2494.897 -654.948 2494.897 -518.308 Z" transform="matrix(1, 0, 0, -1, 0, 0)" style="fill: rgb(102, 102, 102); text-wrap-mode: nowrap;"/>
      </g>
    </g>
  </g>
</svg>