<?xml version="1.0" encoding="utf-8"?>
<svg xmlns="http://www.w3.org/2000/svg" width="512px" height="512px" xmlns:bx="https://boxy-svg.com" preserveAspectRatio="none" viewBox="35 -214 512 512"><defs><bx:export><bx:file format="svg" href="#object-0"/><bx:file format="svg" path="Untitled 2.svg"/></bx:export></defs><g transform="matrix(1973.713623, 0, 0, -1336.694946, -1076.877596, 712.818198)" style="pointer-events: none;" id="object-0"><path d="M 0.786 0.366 C 0.784 0.366 0.782 0.365 0.78 0.365 C 0.777 0.365 0.775 0.365 0.773 0.365 C 0.771 0.365 0.768 0.365 0.766 0.365 C 0.764 0.365 0.761 0.366 0.759 0.366 L 0.711 0.465 L 0.752 0.556 C 0.754 0.556 0.756 0.557 0.759 0.557 C 0.761 0.557 0.763 0.557 0.765 0.557 C 0.768 0.557 0.77 0.557 0.773 0.557 C 0.775 0.557 0.777 0.556 0.779 0.556 L 0.739 0.467 L 0.786 0.366 M 0.692 0.365 C 0.69 0.365 0.688 0.365 0.686 0.365 C 0.684 0.365 0.682 0.366 0.68 0.366 L 0.68 0.637 C 0.682 0.638 0.684 0.638 0.686 0.638 C 0.688 0.639 0.69 0.639 0.692 0.639 C 0.694 0.639 0.696 0.639 0.698 0.638 C 0.701 0.638 0.703 0.638 0.705 0.637 L 0.705 0.366 C 0.703 0.366 0.701 0.365 0.698 0.365 C 0.696 0.365 0.694 0.365 0.692 0.365" style="fill: rgb(68, 68, 68);" id="object-2"><title>erud ka</title></path><path d="M 0.6173781157 0.3661755025 C 0.619212985 0.3656842113 0.6212571859 0.3653145134 0.6235139966 0.3650664091 C 0.6257674098 0.3648233116 0.62772578 0.3646967113 0.629396081 0.3646967113 C 0.6312345266 0.3646967113 0.6332786083 0.3648233116 0.6355320215 0.3650664091 C 0.6377887726 0.3653145134 0.6398295164 0.3656842113 0.6416679025 0.3661755025 L 0.6416679025 0.5558797121 L 0.6010968089 0.5558797121 C 0.6007606983 0.553904593 0.6005102992 0.5516256094 0.6003456712 0.5490378141 C 0.6001775861 0.5464498997 0.6000952721 0.5439177155 0.6000952721 0.5414565206 C 0.6000952721 0.5389901996 0.6001775861 0.5364630818 0.6003456712 0.533875227 C 0.6005102992 0.5312873125 0.6007606983 0.5290083885 0.6010968089 0.527033329 L 0.6173781157 0.527033329 L 0.6173781157 0.3661755025 M 0.6188802719 0.5965561867 C 0.6213840842 0.5963081121 0.6236374974 0.5961865187 0.6256405115 0.5961865187 C 0.6274753809 0.5961865187 0.6296052933 0.5963081121 0.6320266724 0.5965561867 C 0.6344447732 0.596799314 0.6366603971 0.597168982 0.6386634111 0.5976653099 C 0.6389961243 0.6006228924 0.639205277 0.603823483 0.6392911077 0.6072824001 C 0.6393734217 0.6107311845 0.6394144893 0.61381042 0.6394144893 0.6165248156 C 0.6394144893 0.6192342043 0.6393734217 0.6223133206 0.6392911077 0.6257722974 C 0.639205277 0.6292210817 0.6389961243 0.6323001981 0.6386634111 0.6350145936 C 0.6366603971 0.6355059147 0.6344069839 0.6358755827 0.6319032907 0.6361237168 C 0.629396081 0.6363667846 0.6272249818 0.6364933848 0.6253901124 0.6364933848 C 0.6235517263 0.6364933848 0.6213840842 0.6363667846 0.6188802719 0.6361237168 C 0.6163765788 0.6358755827 0.6140339971 0.6355059147 0.6118664145 0.6350145936 C 0.611530304 0.6323001981 0.6113244891 0.6292210817 0.6112421751 0.6257722974 C 0.611156404 0.6223133206 0.6111152768 0.6192342043 0.6111152768 0.6165248156 C 0.6111152768 0.61381042 0.611156404 0.6107311845 0.6112421751 0.6072824001 C 0.6113244891 0.603823483 0.611530304 0.6006228924 0.6118664145 0.5976653099 C 0.6140339971 0.597168982 0.6163765788 0.596799314 0.6188802719 0.5965561867" style="fill: rgb(51, 153, 204);" id="object-1"><title>i</title></path></g></svg>