<?xml version="1.0" encoding="utf-8"?>
<svg xmlns="http://www.w3.org/2000/svg" viewBox="-0.0003 -103.4988 462.0659 106.3574" width="463px" height="107px" preserveAspectRatio="none"><g transform="matrix(567, 0, 0, -384, -47.736867, 141.766463)" style="pointer-events: none;" id="object-0"><path d="M 0.1983935982 0.4617694914 C 0.1982256025 0.4579409063 0.1980575025 0.4546793997 0.1978929043 0.451970011 L 0.1104877964 0.451970011 C 0.110820502 0.4312621057 0.1144526973 0.4160994887 0.1213843003 0.4064823985 C 0.1283091009 0.3968702853 0.1385367066 0.3920643032 0.1520604044 0.3920643032 C 0.1639138013 0.3920643032 0.1751842052 0.3951433897 0.1858714074 0.4013065994 C 0.1872055978 0.3976097107 0.1882894039 0.3931075037 0.1891262978 0.3878102005 C 0.1899597049 0.3825027943 0.1904605031 0.3772714138 0.1906286031 0.3720906079 C 0.1851202995 0.3686366975 0.1790667027 0.3660539091 0.1724711955 0.3643270135 C 0.1658757031 0.3626050949 0.1585735977 0.361739099 0.1505582035 0.361739099 C 0.1388694048 0.361739099 0.128854394 0.3641447127 0.1205063015 0.3689506948 C 0.1121546999 0.3737567961 0.1052677035 0.3805328012 0.0998452008 0.3892889917 C 0.0944157988 0.398035109 0.0904543996 0.4083915949 0.0879506022 0.4203484952 C 0.0854433998 0.4323053062 0.0841915011 0.4454320073 0.0841915011 0.4597336054 C 0.0841915011 0.4737870991 0.0854023024 0.4869138002 0.0878236964 0.4991188049 C 0.0902417004 0.5113186836 0.0939595997 0.521918416 0.0989670977 0.5309175849 C 0.1039780974 0.539916873 0.110278599 0.547062695 0.1178755984 0.552365005 C 0.1254726052 0.5576673746 0.1344449967 0.5603160262 0.144799605 0.5603160262 C 0.1536449939 0.5603160262 0.1614100933 0.5580977798 0.1680912971 0.5536615252 C 0.1747657061 0.5492250919 0.1803631932 0.5431225896 0.1848699003 0.5353540182 C 0.1893766969 0.527590394 0.1927962005 0.5183479786 0.1951386929 0.5076218247 C 0.1974744052 0.4968956113 0.1986439973 0.4852477014 0.1986439973 0.4726780057 C 0.1986439973 0.4692190886 0.1985583007 0.4655880034 0.1983935982 0.4617694914 M 0.1722207963 0.4991188049 C 0.1709689051 0.5054035783 0.1691305935 0.5108882785 0.166712597 0.5155727863 C 0.1642910987 0.5202522278 0.1612042934 0.5240150094 0.1574452072 0.5268509984 C 0.1536895931 0.5296819806 0.1492206007 0.5311049819 0.1440483928 0.5311049819 C 0.1338618994 0.5311049819 0.1260557026 0.5265370011 0.1206331998 0.517421186 C 0.1152037978 0.5082952976 0.1119043007 0.4956041873 0.1107382029 0.4793325067 L 0.1741002947 0.4793325067 C 0.1741002947 0.4862301052 0.1734761 0.4928289056 0.1722207963 0.4991188049 M 0.297693193 0.5322141051 C 0.2974427938 0.5290083885 0.2971478999 0.5259242058 0.2968151867 0.5229666829 C 0.2954775989 0.5234578848 0.2941021919 0.5237060785 0.2926856875 0.5237060785 C 0.2912622988 0.5237060785 0.2901374102 0.5237060785 0.2893038988 0.5237060785 C 0.2847971916 0.5237060785 0.2804962099 0.5227844119 0.2764044106 0.5209358931 C 0.2723127007 0.5190873742 0.268642813 0.5158159137 0.2653878927 0.5111364126 C 0.2621296048 0.506446898 0.2595401108 0.5000404716 0.2576228082 0.4919072092 C 0.2557021976 0.4837689102 0.2547417879 0.473290801 0.2547417879 0.460473001 L 0.2547417879 0.3661755025 C 0.2529034019 0.3656842113 0.2508592904 0.3653145134 0.248605907 0.3650664091 C 0.2463524938 0.3648233116 0.2443048954 0.3646967113 0.2424699962 0.3646967113 C 0.2406315953 0.3646967113 0.2385874987 0.3648233116 0.2363341004 0.3650664091 C 0.2340807021 0.3653145134 0.2319508046 0.3656842113 0.2299478054 0.3661755025 L 0.2299478054 0.5558797121 C 0.2317827046 0.556370914 0.2335388064 0.556740582 0.2352091074 0.5569887161 C 0.236875996 0.5572317839 0.2386285961 0.5573583841 0.240466997 0.5573583841 C 0.2423018962 0.5573583841 0.2441368997 0.5572317839 0.2459786981 0.5569887161 C 0.2478135973 0.556740582 0.2494838983 0.556370914 0.2509861887 0.5558797121 C 0.2514868975 0.5521826744 0.2519876957 0.5473108292 0.2524884045 0.5412741899 C 0.2529892027 0.5352274179 0.2532396019 0.5301175117 0.2532396019 0.5259242058 C 0.256744802 0.5343056917 0.2613784969 0.5415779948 0.2671405077 0.5477464199 C 0.2728992105 0.553904593 0.2802869976 0.5569887161 0.2893038988 0.5569887161 C 0.2906380892 0.5569887161 0.2920168936 0.5569229126 0.2934367955 0.5568063855 C 0.2948532999 0.5566747189 0.2960641086 0.5564923882 0.2970655859 0.5562493205 C 0.2973982096 0.5540311933 0.2976486087 0.5516864061 0.2978200912 0.5492250919 C 0.297981292 0.5467538238 0.2980704904 0.5441659093 0.2980704904 0.5414565206 C 0.2980704904 0.5384988785 0.2979435921 0.5354148149 0.297693193 0.5322141051 M 0.4056324959 0.3650664091 C 0.3975313008 0.3628481925 0.3891420066 0.361739099 0.3804611862 0.361739099 C 0.3722811043 0.361739099 0.3645606041 0.3627924919 0.357296288 0.3648841083 C 0.3500353992 0.3669756055 0.3436490893 0.371224612 0.3381373882 0.3776411116 C 0.3326292038 0.384047389 0.328283608 0.3930417001 0.3251144886 0.4046339095 C 0.3219419122 0.4162209928 0.3203572929 0.431500107 0.3203572929 0.4504913092 L 0.3203572929 0.5558797121 C 0.3221923113 0.556370914 0.3242776096 0.556740582 0.3266167045 0.5569887161 C 0.3289524019 0.5572317839 0.3309588134 0.5573583841 0.3326292038 0.5573583841 C 0.334464103 0.5573583841 0.3365494013 0.5572317839 0.3388884962 0.5569887161 C 0.3412241936 0.556740582 0.3433096111 0.556370914 0.3451513946 0.5558797121 L 0.3451513946 0.451970011 C 0.3451513946 0.4401347041 0.3459025025 0.4303353131 0.3474046886 0.4225716889 C 0.3489069939 0.4148029983 0.3511604071 0.408700496 0.3541648984 0.4042642117 C 0.3571727872 0.3998278081 0.3608427048 0.3967437148 0.3651848137 0.3950217962 C 0.3695234954 0.3932949007 0.3745344877 0.3924339116 0.3802107871 0.3924339116 C 0.3887270093 0.3924339116 0.3959912956 0.3937861025 0.402000308 0.3965005875 L 0.402000308 0.5558797121 C 0.4038352072 0.556370914 0.4058828056 0.556740582 0.408136189 0.5569887161 C 0.4103896022 0.5572317839 0.4124338031 0.5573583841 0.4142720997 0.5573583841 C 0.4161070883 0.5573583841 0.4181546867 0.5572317839 0.4204080105 0.5569887161 C 0.4226613939 0.556740582 0.4247055948 0.556370914 0.4265440106 0.5558797121 L 0.4265440106 0.3720906079 C 0.4206961095 0.3696242869 0.4137268066 0.367284596 0.4056324959 0.3650664091 M 0.5500099063 0.3645144105 C 0.5421590805 0.3626607955 0.533392489 0.361739099 0.5237135887 0.361739099 C 0.5146967173 0.361739099 0.5061392784 0.3634052873 0.4980416 0.3667325974 C 0.4899404049 0.3700597882 0.4828886986 0.3755444884 0.4768796861 0.3831864893 C 0.4708707035 0.3908235133 0.4661101103 0.4006887972 0.4626049101 0.4127722085 C 0.4590995908 0.4248456061 0.4573436081 0.4397650063 0.4573436081 0.4575155079 C 0.4573436081 0.4727995992 0.4588870108 0.4867264032 0.4619772136 0.4993011057 C 0.4650675058 0.5118758082 0.4694473147 0.5226576924 0.4751271009 0.5316569805 C 0.4808000028 0.5406563282 0.4876047075 0.5476146936 0.4955377877 0.552552402 C 0.5034641027 0.5574799776 0.5122752786 0.5599462986 0.5219575763 0.5599462986 C 0.526299715 0.5599462986 0.530682981 0.5594499707 0.5351073742 0.5584675074 C 0.5395284891 0.5574799776 0.5434110165 0.5562493205 0.5467516184 0.5547705889 L 0.5467516184 0.6372327805 C 0.548586607 0.6377239823 0.5506718755 0.6380937099 0.5530143976 0.6383419037 C 0.5553501248 0.6385849714 0.5573530793 0.6387115717 0.5590233803 0.6387115717 C 0.5608584285 0.6387115717 0.5629060268 0.6385849714 0.5651593804 0.6383419037 C 0.5674126744 0.6380937099 0.5694568753 0.6377239823 0.571295321 0.6372327805 L 0.571295321 0.3713512123 C 0.5649501085 0.3686366975 0.5578538775 0.3663628995 0.5500099063 0.3645144105 M 0.5467516184 0.5237060785 C 0.5434110165 0.5256760716 0.5398234129 0.5271549225 0.5359820127 0.5281475186 C 0.5321406722 0.5291249156 0.527970016 0.5296261907 0.5234633088 0.5296261907 C 0.5166140199 0.5296261907 0.5106906891 0.527777791 0.5056797266 0.5240758061 C 0.5006722212 0.520378828 0.4965392947 0.5153245926 0.4932844937 0.5089182854 C 0.4900260866 0.5025017858 0.4876047075 0.4949204922 0.4860200882 0.4861744046 C 0.4844321012 0.4774182141 0.4836398959 0.4678668976 0.4836398959 0.4575155079 C 0.4838044941 0.4340929985 0.4875634909 0.4173300862 0.4949102104 0.4072217047 C 0.5022568107 0.3971134126 0.5122752786 0.3920643032 0.5249655247 0.3920643032 C 0.5293042064 0.3920643032 0.5333101749 0.392368108 0.5369870067 0.3929859996 C 0.5406569242 0.3935987055 0.5439116955 0.3945254982 0.5467516184 0.3957611918 L 0.5467516184 0.5237060785 M 0.7864227295 0.3661755025 C 0.7840834856 0.3656842113 0.7818300724 0.3653145134 0.7796624899 0.3650664091 C 0.7774879932 0.3648233116 0.77523458 0.3646967113 0.7728989124 0.3646967113 C 0.7705597878 0.3646967113 0.7682241201 0.3648233116 0.7658849955 0.3650664091 C 0.7635458708 0.3653145134 0.7612102032 0.3656842113 0.758874476 0.3661755025 L 0.7112894058 0.4645397067 L 0.7521108985 0.5558797121 C 0.7542819977 0.556370914 0.7564530969 0.556740582 0.7586240768 0.5569887161 C 0.7607917786 0.5572317839 0.7630450726 0.5573583841 0.7653843164 0.5573583841 C 0.767891407 0.5573583841 0.770268321 0.5572317839 0.7725250721 0.5569887161 C 0.7747784853 0.556740582 0.7770696282 0.556370914 0.7794120908 0.5558797121 L 0.7385872006 0.467127502 L 0.7864227295 0.3661755025 M 0.6920071244 0.3646967113 C 0.6901686788 0.3646967113 0.6881245971 0.3648233116 0.6858711839 0.3650664091 C 0.6836177707 0.3653145134 0.6815701723 0.3656842113 0.6797353029 0.3661755025 L 0.6797353029 0.6372327805 C 0.6815701723 0.6377239823 0.6836177707 0.6380937099 0.6858711839 0.6383419037 C 0.6881245971 0.6385849714 0.6901686788 0.6387115717 0.6920071244 0.6387115717 C 0.6938419938 0.6387115717 0.6959273815 0.6385849714 0.6982665062 0.6383419037 C 0.7006021738 0.6380937099 0.7026908994 0.6377239823 0.7045292854 0.6372327805 L 0.7045292854 0.3661755025 C 0.7026908994 0.3656842113 0.7006021738 0.3653145134 0.6982665062 0.3650664091 C 0.6959273815 0.3648233116 0.6938419938 0.3646967113 0.6920071244 0.3646967113 M 0.877833724 0.3648841083 C 0.8694821 0.3627924919 0.8609694242 0.361739099 0.8522884846 0.361739099 C 0.8441085219 0.361739099 0.836720705 0.3628481925 0.8301252127 0.3650664091 C 0.8235262036 0.367284596 0.8179357052 0.3708549142 0.8133466244 0.3757925928 C 0.808750689 0.3807201982 0.8052077293 0.3870050013 0.8027005196 0.3946520984 C 0.8001967072 0.4022890925 0.7989448905 0.411531508 0.7989448905 0.4223842919 C 0.7989448905 0.4329839051 0.8004059196 0.4422920942 0.8033280969 0.4503039122 C 0.8062468767 0.4583106041 0.8102151752 0.4649701118 0.8152226806 0.4702725112 C 0.8202335835 0.4755696952 0.8259922862 0.4795199037 0.8325055242 0.4821077883 C 0.8390151858 0.4846956134 0.8458610773 0.4859870076 0.8530396819 0.4859870076 C 0.8583832979 0.4859870076 0.8627666235 0.4858047068 0.8661894798 0.485435009 C 0.8696089983 0.4850653112 0.872490108 0.4846298099 0.8748291731 0.484138608 L 0.8748291731 0.4911678135 C 0.8748291731 0.5057075024 0.8723254204 0.5158159137 0.8673145175 0.5214878917 C 0.8623070121 0.5271549225 0.855042696 0.5299959183 0.8455284238 0.5299959183 C 0.8396806121 0.5299959183 0.8342134953 0.5293123126 0.8291236758 0.5279601216 C 0.8240303993 0.5266028047 0.8190640807 0.5248150826 0.8142212033 0.5225970149 C 0.8110486269 0.5307353139 0.809464097 0.5404688716 0.809464097 0.5518130064 C 0.8151369095 0.5545223951 0.8213998079 0.5566189885 0.8282455802 0.5580977798 C 0.8350914717 0.559576571 0.8416836262 0.5603160262 0.8480321765 0.5603160262 C 0.8647249937 0.5603160262 0.8774152994 0.5547047257 0.8860995173 0.5434923172 C 0.8947768807 0.5322697759 0.8991224766 0.5143371224 0.8991224766 0.4896891117 L 0.8991224766 0.3709815145 C 0.8932747245 0.3690063953 0.8861817718 0.3669756055 0.877833724 0.3648841083 M 0.8748291731 0.4552972913 C 0.8723254204 0.4557884932 0.8691493869 0.4562798142 0.8653115034 0.4567761123 C 0.8614701033 0.4572673142 0.8582152128 0.4575155079 0.8555468917 0.4575155079 C 0.8451923132 0.4575155079 0.8373036981 0.4546793997 0.8318778276 0.4490073919 C 0.8264518976 0.4433354139 0.823738873 0.4347108901 0.823738873 0.4231236875 C 0.823738873 0.4157297909 0.8246545792 0.4099312127 0.8264930248 0.4057430029 C 0.8283280134 0.4015496969 0.8306258917 0.3983491063 0.8333801031 0.3961308897 C 0.8361375928 0.3939127028 0.8391798139 0.3925504088 0.8425238729 0.3920643032 C 0.8458610773 0.3915629089 0.8490337133 0.3913198113 0.8520382047 0.3913198113 C 0.8558760881 0.3913198113 0.8598409891 0.3916287124 0.8639361262 0.392246604 C 0.868024528 0.3928593993 0.8716565967 0.3937861025 0.8748291731 0.3950217962 L 0.8748291731 0.4552972913" style="fill: rgb(245, 245, 245);" id="object-2"><title>erud ka</title></path><path d="M 0.6173781157 0.3661755025 C 0.619212985 0.3656842113 0.6212571859 0.3653145134 0.6235139966 0.3650664091 C 0.6257674098 0.3648233116 0.62772578 0.3646967113 0.629396081 0.3646967113 C 0.6312345266 0.3646967113 0.6332786083 0.3648233116 0.6355320215 0.3650664091 C 0.6377887726 0.3653145134 0.6398295164 0.3656842113 0.6416679025 0.3661755025 L 0.6416679025 0.5558797121 L 0.6010968089 0.5558797121 C 0.6007606983 0.553904593 0.6005102992 0.5516256094 0.6003456712 0.5490378141 C 0.6001775861 0.5464498997 0.6000952721 0.5439177155 0.6000952721 0.5414565206 C 0.6000952721 0.5389901996 0.6001775861 0.5364630818 0.6003456712 0.533875227 C 0.6005102992 0.5312873125 0.6007606983 0.5290083885 0.6010968089 0.527033329 L 0.6173781157 0.527033329 L 0.6173781157 0.3661755025 M 0.6188802719 0.5965561867 C 0.6213840842 0.5963081121 0.6236374974 0.5961865187 0.6256405115 0.5961865187 C 0.6274753809 0.5961865187 0.6296052933 0.5963081121 0.6320266724 0.5965561867 C 0.6344447732 0.596799314 0.6366603971 0.597168982 0.6386634111 0.5976653099 C 0.6389961243 0.6006228924 0.639205277 0.603823483 0.6392911077 0.6072824001 C 0.6393734217 0.6107311845 0.6394144893 0.61381042 0.6394144893 0.6165248156 C 0.6394144893 0.6192342043 0.6393734217 0.6223133206 0.6392911077 0.6257722974 C 0.639205277 0.6292210817 0.6389961243 0.6323001981 0.6386634111 0.6350145936 C 0.6366603971 0.6355059147 0.6344069839 0.6358755827 0.6319032907 0.6361237168 C 0.629396081 0.6363667846 0.6272249818 0.6364933848 0.6253901124 0.6364933848 C 0.6235517263 0.6364933848 0.6213840842 0.6363667846 0.6188802719 0.6361237168 C 0.6163765788 0.6358755827 0.6140339971 0.6355059147 0.6118664145 0.6350145936 C 0.611530304 0.6323001981 0.6113244891 0.6292210817 0.6112421751 0.6257722974 C 0.611156404 0.6223133206 0.6111152768 0.6192342043 0.6111152768 0.6165248156 C 0.6111152768 0.61381042 0.611156404 0.6107311845 0.6112421751 0.6072824001 C 0.6113244891 0.603823483 0.611530304 0.6006228924 0.6118664145 0.5976653099 C 0.6140339971 0.597168982 0.6163765788 0.596799314 0.6188802719 0.5965561867" style="fill: rgb(51, 153, 204);" id="object-1"><title>i</title></path></g></svg>