<?xml version="1.0" encoding="utf-8"?>
<svg xmlns="http://www.w3.org/2000/svg" version="1.1" id="svg2" width="550" height="550" viewBox="16.833 25.324 550 550" xmlns:bx="https://boxy-svg.com"><defs id="defs6"><bx:export><bx:file format="svg" href="#g10" normalization="{&quot;resetTransformOrigins&quot;:true}"/><bx:file format="svg" path="Untitled 2.svg"/></bx:export></defs><g id="g10" transform="matrix(1.333333, 0, 0, -1.333333, 14.833002, 637.476154)"><g><g transform="matrix(1.665799, 0, 0, 1.665799, -318.079294, -166.422841)" style=""><circle cx="287.519" cy="-235.59" r="17.989" transform="matrix(3.44554, 0, 0, -3.357728, -678.152608, -531.742142)" style="paint-order: stroke; stroke: rgb(255, 255, 255); fill: rgb(255, 255, 255);"/><path fill="rgb(49,199,255)" fill-rule="evenodd" d="M 405.376 233.431 C 405.376 186.627 359.442 187.788 359.442 187.788 C 359.442 187.788 359.442 148.48 359.442 148.48 C 359.442 148.48 278.303 188.732 278.303 188.732 C 278.303 188.732 225.939 179.115 225.939 233.431 C 225.939 313.666 225.939 333.723 272.743 333.723 C 277.461 329.006 279.428 325.546 279.428 325.546 C 279.428 325.546 276.538 337.747 292.802 347.246 C 311.128 357.952 339.02 357.181 360.834 346.706 C 383.94 335.613 384.435 321.242 384.435 280.28 C 406.466 273.549 405.376 271.119 405.376 233.431 Z M 305.432 290.51 C 305.432 298.195 301.594 302.04 293.925 302.04 C 293.925 302.04 281.009 302.04 281.009 302.04 C 273.335 302.04 269.5 298.195 269.5 290.51 C 269.5 290.51 269.5 277.575 269.5 277.575 C 269.5 269.888 273.335 266.046 281.009 266.046 C 281.009 266.046 293.925 266.046 293.925 266.046 C 301.594 266.046 305.432 269.888 305.432 277.575 C 305.432 277.575 305.432 290.51 305.432 290.51 Z M 305.432 240.175 C 305.432 247.86 301.594 251.705 293.925 251.705 C 293.925 251.705 281.009 251.705 281.009 251.705 C 273.335 251.705 269.5 247.86 269.5 240.175 C 269.5 240.175 269.5 227.24 269.5 227.24 C 269.5 219.552 273.335 215.713 281.009 215.713 C 281.009 215.713 293.925 215.713 293.925 215.713 C 301.594 215.713 305.432 219.552 305.432 227.24 C 305.432 227.24 305.432 240.175 305.432 240.175 Z M 355.827 290.51 C 355.827 298.195 351.989 302.04 344.316 302.04 C 344.316 302.04 331.402 302.04 331.402 302.04 C 323.729 302.04 319.891 298.195 319.891 290.51 C 319.891 290.51 319.891 277.575 319.891 277.575 C 319.891 269.888 323.729 266.046 331.402 266.046 C 331.402 266.046 344.316 266.046 344.316 266.046 C 351.989 266.046 355.827 269.888 355.827 277.575 C 355.827 277.575 355.827 290.51 355.827 290.51 Z M 355.827 240.175 C 355.827 247.86 351.989 251.705 344.316 251.705 C 344.316 251.705 331.402 251.705 331.402 251.705 C 323.729 251.705 319.891 247.86 319.891 240.175 C 319.891 240.175 319.891 227.24 319.891 227.24 C 319.891 219.552 323.729 215.713 331.402 215.713 C 331.402 215.713 344.316 215.713 344.316 215.713 C 351.989 215.713 355.827 219.552 355.827 227.24 C 355.827 227.24 355.827 240.175 355.827 240.175 Z" style="stroke-width: 1;"/></g></g></g></svg>