<?xml version="1.0" encoding="utf-8"?>
<svg xmlns="http://www.w3.org/2000/svg" version="1.1" id="svg2" width="550" height="550" viewBox="16.833 25.324 550 550" xmlns:bx="https://boxy-svg.com"><defs id="defs6"><bx:export><bx:file format="svg" href="#g10" normalization="{&quot;resetTransformOrigins&quot;:true}"/><bx:file format="svg" path="Untitled 2.svg"/></bx:export></defs><g id="g10" transform="matrix(1.333333, 0, 0, -1.333333, 14.833002, 637.476154)"><g><g transform="matrix(1.042718, 0, 0, 1.042718, -121.396343, 77.025973)" style=""><circle cx="287.519" cy="-235.59" r="17.989" transform="matrix(3.44554, 0, 0, -3.357728, -678.152608, -531.742142)" style="paint-order: stroke; stroke: rgb(255, 255, 255); fill: rgb(255, 255, 255);"/><path fill="rgb(49,199,255)" fill-rule="evenodd" d="M 405.376 233.431 C 405.376 186.627 359.442 187.788 359.442 187.788 C 359.442 187.788 359.442 148.48 359.442 148.48 C 359.442 148.48 278.303 188.732 278.303 188.732 C 278.303 188.732 225.939 179.115 225.939 233.431 C 225.939 313.666 225.939 333.723 272.743 333.723 C 277.461 329.006 279.428 325.546 279.428 325.546 C 279.428 325.546 276.538 337.747 292.802 347.246 C 311.128 357.952 339.02 357.181 360.834 346.706 C 383.94 335.613 384.435 321.242 384.435 280.28 C 406.466 273.549 405.376 271.119 405.376 233.431 Z M 305.432 290.51 C 305.432 298.195 301.594 302.04 293.925 302.04 C 293.925 302.04 281.009 302.04 281.009 302.04 C 273.335 302.04 269.5 298.195 269.5 290.51 C 269.5 290.51 269.5 277.575 269.5 277.575 C 269.5 269.888 273.335 266.046 281.009 266.046 C 281.009 266.046 293.925 266.046 293.925 266.046 C 301.594 266.046 305.432 269.888 305.432 277.575 C 305.432 277.575 305.432 290.51 305.432 290.51 Z M 305.432 240.175 C 305.432 247.86 301.594 251.705 293.925 251.705 C 293.925 251.705 281.009 251.705 281.009 251.705 C 273.335 251.705 269.5 247.86 269.5 240.175 C 269.5 240.175 269.5 227.24 269.5 227.24 C 269.5 219.552 273.335 215.713 281.009 215.713 C 281.009 215.713 293.925 215.713 293.925 215.713 C 301.594 215.713 305.432 219.552 305.432 227.24 C 305.432 227.24 305.432 240.175 305.432 240.175 Z M 355.827 290.51 C 355.827 298.195 351.989 302.04 344.316 302.04 C 344.316 302.04 331.402 302.04 331.402 302.04 C 323.729 302.04 319.891 298.195 319.891 290.51 C 319.891 290.51 319.891 277.575 319.891 277.575 C 319.891 269.888 323.729 266.046 331.402 266.046 C 331.402 266.046 344.316 266.046 344.316 266.046 C 351.989 266.046 355.827 269.888 355.827 277.575 C 355.827 277.575 355.827 290.51 355.827 290.51 Z M 355.827 240.175 C 355.827 247.86 351.989 251.705 344.316 251.705 C 344.316 251.705 331.402 251.705 331.402 251.705 C 323.729 251.705 319.891 247.86 319.891 240.175 C 319.891 240.175 319.891 227.24 319.891 227.24 C 319.891 219.552 323.729 215.713 331.402 215.713 C 331.402 215.713 344.316 215.713 344.316 215.713 C 351.989 215.713 355.827 219.552 355.827 227.24 C 355.827 227.24 355.827 240.175 355.827 240.175 Z" style="stroke-width: 1;"/></g><g id="g12" transform="matrix(0.075696, 0, 0, 0.075696, 52.435239, 101.33916)" style="fill: rgb(3, 169, 244); fill-opacity: 1;"><rect x="322.418" y="-1436.1" width="3458.81" height="1601.3" rx="181.737" ry="181.737" style="paint-order: fill; stroke-linejoin: round; stroke-width: 105px; stroke-dashoffset: -3px; fill: rgb(255, 255, 255); stroke: rgb(102, 102, 102);" transform="matrix(1, 0, 0, -1, 0, 0)"/><path d="M 968.645 -232.127 Q 836.165 -232.127 763.523 -313.675 Q 690.882 -395.223 690.882 -544.403 Q 690.882 -697.479 764.637 -780.975 Q 838.391 -864.471 974.768 -864.471 Q 1018.743 -864.471 1062.718 -855.008 Q 1106.692 -845.545 1131.741 -832.742 L 1103.352 -754.256 Q 1072.737 -766.502 1036.555 -774.573 Q 1000.374 -782.645 972.542 -782.645 Q 786.624 -782.645 786.624 -545.516 Q 786.624 -433.074 831.99 -372.957 Q 877.356 -312.84 966.419 -312.84 Q 1042.679 -312.84 1122.835 -345.682 L 1122.835 -263.856 Q 1061.604 -232.127 968.645 -232.127 Z M 1339.919 -243.26 L 1247.517 -243.26 L 1247.517 -1109.393 L 1339.919 -1109.393 Z M 2042.456 -548.856 Q 2042.456 -399.676 1967.309 -315.902 Q 1892.163 -232.127 1759.682 -232.127 Q 1677.856 -232.127 1614.399 -270.535 Q 1550.942 -308.944 1516.43 -380.75 Q 1481.918 -452.557 1481.918 -548.856 Q 1481.918 -698.035 1556.508 -781.253 Q 1631.098 -864.471 1763.579 -864.471 Q 1891.606 -864.471 1967.031 -779.305 Q 2042.456 -694.139 2042.456 -548.856 Z M 1577.661 -548.856 Q 1577.661 -431.961 1624.418 -370.731 Q 1671.176 -309.5 1761.909 -309.5 Q 1852.641 -309.5 1899.677 -370.452 Q 1946.713 -431.405 1946.713 -548.856 Q 1946.713 -665.194 1899.677 -725.589 Q 1852.641 -785.985 1760.795 -785.985 Q 1670.063 -785.985 1623.862 -726.424 Q 1577.661 -666.864 1577.661 -548.856 Z M 2271.263 -853.338 L 2271.263 -457.567 Q 2271.263 -382.977 2305.218 -346.239 Q 2339.173 -309.5 2411.536 -309.5 Q 2507.279 -309.5 2551.531 -361.824 Q 2595.784 -414.149 2595.784 -532.713 L 2595.784 -853.338 L 2688.187 -853.338 L 2688.187 -243.26 L 2611.927 -243.26 L 2598.568 -325.086 L 2593.558 -325.086 Q 2565.169 -279.998 2514.793 -256.063 Q 2464.417 -232.127 2399.847 -232.127 Q 2288.519 -232.127 2233.133 -285.008 Q 2177.747 -337.889 2177.747 -454.227 L 2177.747 -853.338 Z M 3279.351 -325.086 L 3274.341 -325.086 Q 3210.327 -232.127 3082.857 -232.127 Q 2963.179 -232.127 2896.66 -313.953 Q 2830.142 -395.78 2830.142 -546.629 Q 2830.142 -697.479 2896.939 -780.975 Q 2963.736 -864.471 3082.857 -864.471 Q 3206.988 -864.471 3273.228 -774.295 L 3280.464 -774.295 L 3276.568 -818.27 L 3274.341 -861.131 L 3274.341 -1109.393 L 3366.743 -1109.393 L 3366.743 -243.26 L 3291.597 -243.26 Z M 3094.546 -309.5 Q 3189.175 -309.5 3231.758 -360.989 Q 3274.341 -412.479 3274.341 -527.147 L 3274.341 -546.629 Q 3274.341 -676.326 3231.201 -731.712 Q 3188.062 -787.098 3093.433 -787.098 Q 3012.163 -787.098 2969.024 -723.919 Q 2925.884 -660.74 2925.884 -545.516 Q 2925.884 -428.621 2968.745 -369.061 Q 3011.607 -309.5 3094.546 -309.5 Z" transform="matrix(1, 0, 0, -1, 0, 0)" style="fill: rgb(102, 102, 102); text-wrap-mode: nowrap;"/></g></g></g></svg>