<?xml version="1.0" encoding="utf-8"?>
<svg xmlns="http://www.w3.org/2000/svg" viewBox="0 0 500 500" xmlns:bx="https://boxy-svg.com" width="500px" height="500px"><defs><bx:export><bx:file format="svg"/></bx:export><linearGradient gradientUnits="userSpaceOnUse" x1="203.234" y1="61.849" x2="203.234" y2="307.568" id="gradient-0"><stop offset="0" style="stop-color: rgb(166, 90, 246)"/><stop offset="1" style="stop-color: rgb(41.095% 12.567% 72.44%)"/></linearGradient><linearGradient gradientUnits="userSpaceOnUse" x1="194.023" y1="117.33" x2="194.023" y2="152.125" id="gradient-1"><stop offset="0" style="stop-color: rgb(166, 90, 246)"/><stop offset="1" style="stop-color: rgb(41.095% 12.567% 72.44%)"/></linearGradient></defs><g style="" transform="matrix(1.754745, 0, 0, 1.754745, -99.375613, -75.194819)"><path d="M 86.228 269.493 C 81.556 289.752 90.74 304.123 102.386 307.027 C 114.033 309.932 128.144 301.37 133.322 275.761 C 138.148 251.912 137.614 207.535 135.873 169.12 C 134.133 130.704 123.966 113.117 149.278 103.988 C 177.135 93.943 246.113 93.172 261.676 115.124 C 277.239 137.076 222.234 156.437 193.441 181.489 C 164.648 206.541 159.939 232.05 177.685 239.667 C 188.61 244.357 209.907 211.611 224.727 215.982 C 239.547 220.353 237.923 302.561 288.88 305.022 C 383.851 309.609 238.479 195.092 264.767 177.034 C 291.056 158.976 301.41 156.984 306.877 145.195 C 315.07 127.527 307.948 95.77 282.519 79.635 C 257.118 63.516 213.452 60.433 176.414 62.356 C 146.936 63.886 105.625 66.621 94.335 81.05 C 89.46 87.28 89.353 103.237 90.7 146.539 C 92.048 189.841 92.935 240.412 86.228 269.495 L 86.228 269.493 Z" style="text-wrap-mode: nowrap; paint-order: fill; fill: url(&quot;#gradient-0&quot;);"/><rect x="170.271" y="117.33" width="47.505" height="34.795" rx="25" ry="25" style="paint-order: fill; fill: url(&quot;#gradient-1&quot;);"/></g></svg>