<?xml version="1.0" encoding="utf-8"?>
<svg xmlns="http://www.w3.org/2000/svg" version="1.1" id="svg2" width="550" height="550" viewBox="16.833 25.324 550 550" xmlns:bx="https://boxy-svg.com">
  <defs id="defs6">
    <bx:export>
      <bx:file format="svg" href="#g10" normalization="{&quot;resetTransformOrigins&quot;:true}"/>
      <bx:file format="svg" path="Untitled 2.svg"/>
    </bx:export>
  </defs>
  <g id="g10" transform="matrix(1.333333, 0, 0, -1.333333, 14.833002, 637.476154)">
    <g>
      <g transform="matrix(0.1, 0, 0, 0.1, 0, 95.410045)"/>
      <g transform="matrix(1, 0, 0, 1, 0, 98.285609)">
        <circle cx="287.519" cy="-235.59" r="17.989" transform="matrix(3.853229, 0, 0, -3.584816, -793.310876, -590.290118)" style="paint-order: stroke; stroke: rgb(255, 255, 255); fill: rgb(255, 255, 255);"/>
        <circle cx="67.57" cy="-294.48" r="17.989" transform="matrix(3.48739, 0, 0, -3.553035, -133.80875, -792.160729)" style="stroke-miterlimit: 4.63; stroke-width: 0px; paint-order: stroke; stroke: rgb(255, 255, 255); fill: rgb(255, 255, 255);"/>
      </g>
      <g id="g12" transform="matrix(0.1, 0, 0, 0.1, 0, 98.285609)" style="fill:#03a9f4;fill-opacity:1">
        <g id="g4515" transform="translate(207.08505,1265.7305)">
          <path id="path26" style="fill:#03a9f4;fill-opacity:1;fill-rule:nonzero;stroke:none" d="m 675.883,830 h 250 v 870 h -250 z"/>
          <path id="path28" style="fill:#03a9f4;fill-opacity:1;fill-rule:nonzero;stroke:none" d="m 2929.06,654.859 c -335.29,0 -608.05,272.77 -608.05,608.051 0,335.28 272.76,608.05 608.05,608.05 335.28,0 608.04,-272.77 608.04,-608.05 0,-335.281 -272.76,-608.051 -608.04,-608.051 z m -2117.29,0 c -335.286,0 -608.047,272.77 -608.047,608.051 0,335.28 272.761,608.05 608.047,608.05 335.28,0 608.04,-272.77 608.04,-608.05 0,-335.281 -272.76,-608.051 -608.04,-608.051 z M 2929.06,2059.68 c -406.46,0 -742.57,-305.99 -790.64,-699.68 h -536.01 c -48.07,393.69 -384.18,699.68 -790.64,699.68 C 372.426,2059.68 15,1702.26 15,1262.91 15,823.57 372.426,466.141 811.77,466.141 c 407.9,0 744.99,308.168 791.17,703.859 h 534.95 c 46.18,-395.691 383.27,-703.859 791.17,-703.859 439.34,0 796.77,357.429 796.77,796.769 0,439.35 -357.43,796.77 -796.77,796.77"/>
          <path id="path30" style="fill:#03a9f4;fill-opacity:1;fill-rule:nonzero;stroke:none" d="m 2914.06,1077.7 c -102.13,0 -185.22,83.08 -185.22,185.21 0,102.13 83.09,185.22 185.22,185.22 102.13,0 185.21,-83.09 185.21,-185.22 0,-102.13 -83.08,-185.21 -185.21,-185.21 z m 0,622.06 c -240.88,0 -436.85,-195.98 -436.85,-436.85 0,-240.88 195.97,-436.84 436.85,-436.84 240.88,0 436.84,195.96 436.84,436.84 0,240.87 -195.96,436.85 -436.84,436.85"/>
        </g>
        <rect x="322.418" y="-1436.1" width="3458.81" height="1601.3" rx="181.737" ry="181.737" style="paint-order: fill; stroke-linejoin: round; stroke-width: 105px; stroke-dashoffset: -3px; fill: rgb(255, 255, 255); stroke: rgb(102, 102, 102);" transform="matrix(1, 0, 0, -1, 0, 0)"/>
        <path d="M 968.645 -232.127 Q 836.165 -232.127 763.523 -313.675 Q 690.882 -395.223 690.882 -544.403 Q 690.882 -697.479 764.637 -780.975 Q 838.391 -864.471 974.768 -864.471 Q 1018.743 -864.471 1062.718 -855.008 Q 1106.692 -845.545 1131.741 -832.742 L 1103.352 -754.256 Q 1072.737 -766.502 1036.555 -774.573 Q 1000.374 -782.645 972.542 -782.645 Q 786.624 -782.645 786.624 -545.516 Q 786.624 -433.074 831.99 -372.957 Q 877.356 -312.84 966.419 -312.84 Q 1042.679 -312.84 1122.835 -345.682 L 1122.835 -263.856 Q 1061.604 -232.127 968.645 -232.127 Z M 1339.919 -243.26 L 1247.517 -243.26 L 1247.517 -1109.393 L 1339.919 -1109.393 Z M 2042.456 -548.856 Q 2042.456 -399.676 1967.309 -315.902 Q 1892.163 -232.127 1759.682 -232.127 Q 1677.856 -232.127 1614.399 -270.535 Q 1550.942 -308.944 1516.43 -380.75 Q 1481.918 -452.557 1481.918 -548.856 Q 1481.918 -698.035 1556.508 -781.253 Q 1631.098 -864.471 1763.579 -864.471 Q 1891.606 -864.471 1967.031 -779.305 Q 2042.456 -694.139 2042.456 -548.856 Z M 1577.661 -548.856 Q 1577.661 -431.961 1624.418 -370.731 Q 1671.176 -309.5 1761.909 -309.5 Q 1852.641 -309.5 1899.677 -370.452 Q 1946.713 -431.405 1946.713 -548.856 Q 1946.713 -665.194 1899.677 -725.589 Q 1852.641 -785.985 1760.795 -785.985 Q 1670.063 -785.985 1623.862 -726.424 Q 1577.661 -666.864 1577.661 -548.856 Z M 2271.263 -853.338 L 2271.263 -457.567 Q 2271.263 -382.977 2305.218 -346.239 Q 2339.173 -309.5 2411.536 -309.5 Q 2507.279 -309.5 2551.531 -361.824 Q 2595.784 -414.149 2595.784 -532.713 L 2595.784 -853.338 L 2688.187 -853.338 L 2688.187 -243.26 L 2611.927 -243.26 L 2598.568 -325.086 L 2593.558 -325.086 Q 2565.169 -279.998 2514.793 -256.063 Q 2464.417 -232.127 2399.847 -232.127 Q 2288.519 -232.127 2233.133 -285.008 Q 2177.747 -337.889 2177.747 -454.227 L 2177.747 -853.338 Z M 3279.351 -325.086 L 3274.341 -325.086 Q 3210.327 -232.127 3082.857 -232.127 Q 2963.179 -232.127 2896.66 -313.953 Q 2830.142 -395.78 2830.142 -546.629 Q 2830.142 -697.479 2896.939 -780.975 Q 2963.736 -864.471 3082.857 -864.471 Q 3206.988 -864.471 3273.228 -774.295 L 3280.464 -774.295 L 3276.568 -818.27 L 3274.341 -861.131 L 3274.341 -1109.393 L 3366.743 -1109.393 L 3366.743 -243.26 L 3291.597 -243.26 Z M 3094.546 -309.5 Q 3189.175 -309.5 3231.758 -360.989 Q 3274.341 -412.479 3274.341 -527.147 L 3274.341 -546.629 Q 3274.341 -676.326 3231.201 -731.712 Q 3188.062 -787.098 3093.433 -787.098 Q 3012.163 -787.098 2969.024 -723.919 Q 2925.884 -660.74 2925.884 -545.516 Q 2925.884 -428.621 2968.745 -369.061 Q 3011.607 -309.5 3094.546 -309.5 Z" transform="matrix(1, 0, 0, -1, 0, 0)" style="fill: rgb(102, 102, 102); text-wrap-mode: nowrap;"/>
      </g>
    </g>
  </g>
</svg>