<?xml version="1.0" encoding="UTF-8" standalone="no"?>
<!-- Created with Inkscape (http://www.inkscape.org/) -->

<svg
   width="416.19354mm"
   height="127.76456mm"
   viewBox="0 0 416.19352 127.76455"
   version="1.1"
   id="svg3690"
   xml:space="preserve"
   inkscape:version="1.2.2 (b0a8486541, 2022-12-01)"
   sodipodi:docname="drawing.svg"
   inkscape:export-filename="../../../../../Downloads/robo_logo4.svg"
   inkscape:export-xdpi="98.274094"
   inkscape:export-ydpi="98.274094"
   xmlns:inkscape="http://www.inkscape.org/namespaces/inkscape"
   xmlns:sodipodi="http://sodipodi.sourceforge.net/DTD/sodipodi-0.dtd"
   xmlns="http://www.w3.org/2000/svg"
   xmlns:svg="http://www.w3.org/2000/svg"><sodipodi:namedview
     id="namedview3692"
     pagecolor="#505050"
     bordercolor="#eeeeee"
     borderopacity="1"
     inkscape:showpageshadow="0"
     inkscape:pageopacity="0"
     inkscape:pagecheckerboard="0"
     inkscape:deskcolor="#505050"
     inkscape:document-units="mm"
     showgrid="false"
     inkscape:zoom="0.83695634"
     inkscape:cx="528.10401"
     inkscape:cy="832.182"
     inkscape:window-width="3840"
     inkscape:window-height="2124"
     inkscape:window-x="0"
     inkscape:window-y="0"
     inkscape:window-maximized="1"
     inkscape:current-layer="layer1" /><defs
     id="defs3687" /><g
     inkscape:label="Layer 1"
     inkscape:groupmode="layer"
     id="layer1"
     transform="translate(-34.959374,-44.131925)"><g
       id="g74917"
       inkscape:label="robo"
       transform="translate(-26.951059,-22.846845)"><path
         id="path3717"
         style="fill:#000000;stroke-width:0.264583"
         d="m 90.383114,66.981441 c -2.483942,-0.09414 -4.976085,2.312093 -3.663343,5.273063 0.591079,1.333222 1.022914,1.734568 2.374016,2.208134 3.195326,1.119973 6.108649,-2.676088 4.313431,-5.620328 -0.767505,-1.258745 -1.89504,-1.818077 -3.024104,-1.860869 z m -0.271302,1.552877 c 0.117023,0.0041 0.235282,0.02318 0.353467,0.05994 1.766449,0.282646 2.468593,2.247816 1.323434,3.70365 -1.235844,1.571123 -3.804936,0.612546 -3.804936,-1.419552 0,0 0.0428,-0.710739 0.190686,-1.033012 0.353002,-0.627072 1.118194,-1.339634 1.937349,-1.311031 z m 41.885818,3.08405 c -0.44272,0.02187 -0.94239,0.316804 -1.48777,0.917256 -1.30596,1.437858 -0.88439,3.7737 -0.86609,5.271513 0.0208,1.705127 -0.4127,3.161609 0.80718,4.725293 l 0.8077,0.753959 -0.43098,0.833024 c -0.29681,0.573968 -0.568,0.789291 -0.87333,0.692981 -0.24364,-0.07685 -1.99068,-0.681619 -3.88245,-1.344104 -2.06313,-0.722497 -4.76134,-1.440722 -6.74687,-1.767851 -2.87044,-0.472925 -6.10764,-0.512233 -9.01775,-0.410794 -11.540724,0.402282 -20.361574,3.9925 -27.821349,11.310904 -3.196629,3.13605 -3.906738,5.42224 -3.906738,12.577011 v 4.59403 l -1.256771,0.002 c -0.691223,9e-4 -1.613958,0.19539 -2.050521,0.43253 -0.436561,0.23715 -1.309437,1.04912 -1.60507,1.79524 -1.503218,3.79383 -1.455852,8.32297 -0.306441,12.23853 0.285429,0.97234 0.87418,1.93808 1.706873,2.51561 0.556,0.38567 1.116828,0.40624 1.972489,0.47904 l 1.555977,0.13229 0.09405,2.17196 c 0,0 -0.07857,1.46856 0.09405,2.17248 0.149379,0.60913 0.797367,1.70429 0.797367,1.70429 1.184642,2.53153 4.282482,5.17948 6.075598,5.19348 0.478732,0.004 0.406079,0.38131 -0.174149,0.90641 -0.859636,0.77795 -1.584292,2.87932 -1.773019,5.14232 l -0.179834,2.15594 H 82.5655 c -2.477966,0 -6.265781,1.70152 -7.299296,3.27887 -0.248883,0.37984 -0.973624,0.81919 -1.791622,1.08675 -3.847301,1.66764 -7.596215,7.15702 -8.059973,11.93519 -0.207536,2.13827 0.836355,4.63881 2.512508,5.93504 1.846131,1.42768 3.578743,4.06212 7.293095,2.63912 2.373541,-0.90933 2.164003,-2.23016 2.551782,-4.20698 l 0.145728,-3.1409 0.749308,-1.02422 c 0.412328,-0.56355 1.007642,-1.41659 1.322917,-1.8955 l 0.573608,-0.87074 1.5875,0.0889 1.5875,0.0889 0.132292,5.41208 c 0,0 -0.114227,3.61474 0.358634,5.35626 0.141485,0.52107 0.558106,1.47278 0.558106,1.47278 0.94119,1.69924 2.212099,2.8089 3.911905,3.41684 l 1.256771,0.44959 v 3.08353 3.08353 l -0.992187,0.18397 c -2.45564,0.45529 -5.136127,2.78836 -5.513359,4.79919 -0.272996,1.32285 -0.281035,2.91793 0.336415,3.71231 0.251915,0.38447 0.939374,0.92257 1.527555,1.19579 6.568873,1.10605 15.591003,0.27583 22.500433,0.17053 0,0 0.63851,-0.16895 0.89556,-0.36277 0.36679,-0.27657 0.68706,-0.65571 0.84852,-1.08572 0.44535,-1.1861 0.69603,-1.73462 0.20893,-3.79512 -0.42649,-1.42347 -2.05513,-3.24696 -3.54294,-3.9672 l -1.18752,-0.57515 v -3.21738 -3.21737 l 6.68073,0.0563 6.68072,0.0563 0.0744,3.05201 0.0744,3.05201 -1.41025,0.62374 c -1.63845,0.72459 -3.08764,3.15753 -3.46039,4.80406 -0.11639,0.51414 -0.26982,4.13277 1.26716,4.50052 2.40524,0.5755 10.3435,0.27606 15.5166,0.29695 2.60855,0.0105 5.40892,0.31963 7.82523,-0.0865 1.64755,-0.80606 2.12168,-3.00194 1.86159,-4.4486 -0.0675,-0.35863 -0.35812,-1.03456 -0.35812,-1.03456 -0.75539,-2.18232 -3.00745,-4.16505 -5.13974,-4.5253 l -1.038,-0.17498 v -3.09697 -3.09696 l 1.12551,-0.30076 c 4.10928,-1.09907 5.48907,-3.98119 5.48907,-11.4639 v -4.48448 h 1.44023 1.44073 l 1.33739,1.77663 1.3379,1.77716 v 2.79724 c 0,0 -0.21577,1.89015 0,2.79725 0.20398,0.85751 -0.0191,1.58117 0.95808,2.14147 0.91168,0.52273 3.50057,0.34778 3.50057,0.34778 0,0 5.72176,-4.2e-4 8.42119,-8.27236 0.90734,-5.84796 -3.92721,-12.89017 -8.65736,-12.89017 -0.25814,0 -1.03752,-0.55217 -1.73167,-1.2268 -1.65033,-1.60395 -4.02823,-2.70777 -6.28696,-2.91869 l -1.7601,-0.16433 v -1.5074 c 0,-2.01185 -0.53665,-3.68385 -1.68465,-5.24774 l -0.94774,-1.29088 0.98546,-0.30024 c 3.46968,-1.05774 6.14485,-5.12935 6.14485,-9.3524 v -1.80402 h 1.06712 c 0.58676,0 3.2172,-0.22385 3.73853,-1.14694 2.21161,-3.91601 2.81882,-11.82662 -0.0256,-15.20816 -0.76207,-0.90598 -2.82182,-1.10506 -3.50053,-1.10585 l -1.23404,-0.002 -0.0992,-5.62239 c 0,0 0.16223,-3.73448 -0.2217,-5.569174 -0.0881,-0.420847 -0.37413,-1.243852 -0.37413,-1.243852 -0.9048,-2.171036 -2.24637,-3.887165 -4.58164,-5.860624 -3.37724,-2.854012 -4.31399,-3.556178 -6.27041,-4.699455 -0.96878,-0.56612 -1.63817,-1.105613 -1.48725,-1.198893 0.15093,-0.09328 0.41754,-0.670772 0.59221,-1.283126 0.17467,-0.612353 0.39783,-1.272 0.80925,-1.663981 0,0 0.5868,-0.773292 0.72244,-1.089856 0.50276,-1.173407 0.28215,-3.614249 0.28215,-3.614249 0,-3.98054 -0.81589,-6.373764 -2.14405,-6.308142 z m -0.15555,2.048453 c 1.02818,0.520693 1.00876,2.661539 1.02216,4.055567 0.0121,1.258731 0.12808,3.404546 -0.85214,3.678845 -0.70825,0.135789 -0.78135,-0.207026 -0.78135,-3.688147 0,-1.167793 -0.70578,-3.479926 0.61133,-4.046265 z m 15.23938,6.025472 c -0.82981,0.02547 -1.51174,1.007235 -0.91415,1.919263 0.49194,0.750789 1.09795,0.820809 1.77766,0.205672 0.62427,-0.564911 0.61469,-1.213553 -0.0264,-1.793689 -0.26749,-0.242079 -0.56056,-0.339736 -0.83716,-0.331246 z M 118.81873,83.5798 c 3.13603,0.56 6.64037,1.803572 9.10524,2.903293 2.09271,0.933679 5.6881,2.932222 5.68803,3.161564 -2e-5,0.08319 -9.96238,0.164795 -22.1387,0.181385 l -22.138701,0.03049 0.509013,-0.383439 c 4.327854,-3.256248 13.073038,-6.040052 20.498498,-6.272841 0,0 5.69229,-0.117647 8.47662,0.379548 z m -46.721839,5.290228 c -0.305593,0 -0.698707,0.142668 -0.873331,0.317293 -0.174625,0.174625 -0.317294,0.567739 -0.317294,0.873332 0,0.305593 0.142669,0.69819 0.317294,0.872815 0.174624,0.174624 0.567738,0.31781 0.873331,0.31781 0.305593,0 0.69819,-0.143186 0.872815,-0.31781 0.174625,-0.174625 0.31781,-0.567222 0.31781,-0.872815 0,-0.305593 -0.143185,-0.698707 -0.31781,-0.873332 -0.174625,-0.174625 -0.567222,-0.317293 -0.872815,-0.317293 z m 79.413759,0.542085 c -0.3443,-0.01249 -0.69485,0.08713 -0.91209,0.304375 -0.55494,0.554939 -0.38777,1.789398 0.2775,2.04742 1.16642,0.452386 2.29744,-1.032865 1.50947,-1.982308 -0.19263,-0.232111 -0.53058,-0.357 -0.87488,-0.369487 z m -64.597092,2.765206 h 24.606252 24.60625 c 6.85111,3.028755 6.02394,7.589873 6.41614,24.870831 l -0.0661,14.2875 -0.4377,0.96273 c -0.65094,1.43338 -2.31656,3.15055 -3.66334,3.776 l -1.19115,0.55294 -25.26719,0.0465 c -13.897226,0.0257 -25.566487,-0.0454 -25.931231,-0.15813 -1.735182,-0.5746 -4.520694,-3.03151 -5.157308,-5.18005 -0.307334,-5.2788 0,-16.13958 0,-16.13958 l 0.293522,-15.898772 c 0.32152,-2.721761 2.444022,-5.309716 4.60127,-6.494694 z m 4.998144,3.042709 c -3.346122,0 -4.587631,0.719541 -3.359484,1.947684 1.977751,0.08009 6.696253,0.506544 6.918957,-0.609781 0.151366,-1.072363 -0.554508,-1.337903 -3.559473,-1.337903 z m -7.379394,4.157885 -0.0739,3.440617 c -0.04046,1.89235 0.04572,3.75475 0.191719,4.13877 0.167703,0.44109 0.465646,0.69814 0.80822,0.69814 0.854664,0 1.079562,-1.08904 0.999422,-4.83691 l -0.07338,-3.440617 c -0.78853,-0.590805 -1.083392,-0.484719 -1.852081,0 z m -21.43125,6.954617 c -0.305594,0 -0.698707,0.14266 -0.873332,0.31729 -0.174625,0.17462 -0.317293,0.56774 -0.317293,0.87333 0,0.3056 0.142668,0.69819 0.317293,0.87282 0.174625,0.17462 0.567738,0.31781 0.873332,0.31781 0.305593,0 0.69819,-0.14319 0.872815,-0.31781 0.174625,-0.17463 0.31781,-0.56722 0.31781,-0.87282 0,-0.30559 -0.143185,-0.69871 -0.31781,-0.87333 -0.174625,-0.17463 -0.567222,-0.31729 -0.872815,-0.31729 z m 96.664382,1.32291 c -2.76097,0 -3.60042,3.63732 -1.15032,4.98471 1.79985,0.9898 3.89083,-0.38368 3.76412,-2.57193 -0.0478,-0.8249 -0.46715,-1.33275 -0.97566,-1.77819 -0.44057,-0.38593 -0.88552,-0.63459 -1.63814,-0.63459 z m -0.19482,1.59526 c 0.55407,-0.0535 1.17484,0.21826 1.24799,0.73432 0.0476,0.33544 -0.0565,0.78192 -0.231,0.99219 -0.76887,0.92642 -2.3797,-0.19638 -1.8097,-1.26143 0.15188,-0.28379 0.46027,-0.43301 0.79271,-0.46508 z m -32.86879,1.37614 c -3.47803,0.0996 -6.93546,2.46139 -7.30653,6.5536 -0.30534,3.36732 1.68835,6.63811 4.69222,7.69876 6.38629,2.25497 12.07051,-3.92011 9.32397,-10.1291 -1.28706,-2.90962 -4.00453,-4.20072 -6.70966,-4.12326 z m -30.11031,0.009 c -1.09619,0.0365 -2.24298,0.31292 -3.388423,0.87333 -5.764493,2.82031 -4.669365,12.12535 1.603002,13.61933 2.741174,0.65291 5.261221,-0.0321 7.175791,-1.95079 0.97726,-0.97937 1.4804,-1.63816 1.834,-3.04787 1.32995,-5.3022 -2.47421,-9.65224 -7.22437,-9.494 z m 30.34957,0.72967 c 1.51204,0.0145 3.04304,0.58428 4.29741,1.83865 3.37655,3.37656 1.9889,9.66305 -2.42207,10.97297 -4.45109,1.32183 -8.42605,-1.61173 -8.43205,-6.22236 -0.005,-3.9654 3.23022,-6.62104 6.55671,-6.58926 z m -30.361455,0.0574 c 1.047989,-0.0302 2.121474,0.19744 3.12384,0.71417 5.140525,2.65004 4.471445,10.4005 -1.039213,12.03699 -5.537602,1.64449 -10.076722,-3.8258 -7.600053,-9.15861 1.028344,-2.21425 3.209849,-3.52617 5.515426,-3.59255 z m -17.727084,0.13126 -0.0708,6.84765 -0.07028,6.84816 -0.661459,0.0356 c -1.128984,0.0607 -1.831775,-0.18145 -2.246891,-0.77411 0,0 -0.322062,-0.35116 -0.398942,-0.56999 -0.576496,-1.64091 -0.707226,-3.38346 -0.706934,-5.12269 2.91e-4,-1.73025 0.38488,-3.6562 0.706934,-5.26376 0.08048,-0.40172 0.473356,-1.1343 0.473356,-1.1343 0.323427,-0.39941 0.869444,-0.62923 1.723926,-0.72553 z m 65.975819,0.0129 1.5782,0.0636 c 2.35328,0.0951 2.86262,3.93104 2.86862,6.28013 0.005,2.08797 -0.12789,4.68818 -0.94796,6.27089 -0.53355,0.83849 -2.3384,0.79024 -3.33763,0.93601 l -0.002,-3.50572 c -9.4e-4,-1.92816 -0.0659,-4.96425 -0.14469,-6.74688 z m -18.1529,1.12086 c -5.70305,0.0293 -7.08963,8.15821 -1.75596,10.29446 0.96303,0.38572 2.78585,0.32597 3.86901,-0.1266 5.31177,-2.2194 3.6538,-10.19746 -2.11305,-10.16786 z m -30.24208,0.0615 c -1.351232,0.0451 -2.61568,0.60928 -3.540352,1.66243 -2.409381,2.74414 -1.352951,7.23671 1.994193,8.48165 3.301251,1.22787 5.463539,0.0152 6.799699,-3.22179 1.00297,-2.42981 -0.4074,-5.18784 -2.062003,-6.07067 -1.036737,-0.60756 -2.140578,-0.88668 -3.191537,-0.85162 z m 28.65355,2.04948 c 1.37836,0 2.18363,1.80579 1.23041,2.75901 -0.88814,0.88815 -2.75952,0.0938 -2.75952,-1.17151 0,-0.65585 0.89758,-1.5875 1.52911,-1.5875 z m -29.777512,0.0972 c 0.289895,0.008 0.594633,0.0984 0.892452,0.29352 0.700905,0.45925 0.845588,1.63328 0.276415,2.20245 -0.481946,0.48195 -1.883093,0.64744 -2.380163,0.0982 -1.026525,-1.13429 -0.04492,-2.63102 1.211296,-2.59415 z m 19.932112,11.8556 c -0.21503,0.017 -0.45233,0.16769 -0.65939,0.47026 -0.22927,0.33503 -0.39883,1.01981 -0.75912,1.41593 -0.55434,0.59934 -1.29267,0.76214 -2.16421,0.71314 -1.42145,-0.08 -2.49821,-0.5758 -2.90422,-1.55598 -0.39631,-0.95679 -0.92248,-1.20092 -1.45056,-0.67283 -0.73641,0.73642 0.25127,2.39544 1.96629,3.30264 2.48858,1.31641 6.5592,0.45037 6.6151,-2.72851 0.0111,-0.62972 -0.28549,-0.97302 -0.64389,-0.94465 z m 18.72134,12.12433 1.09968,0.6444 c 2.90665,1.70341 3.03316,2.42164 3.04116,17.2682 0.008,14.97951 -0.21381,16.13615 -3.34244,17.44338 l -0.86764,0.36225 h -22.194 -22.194509 l -0.874365,-0.59583 c -2.830905,-1.92721 -2.907833,-2.39476 -2.907833,-17.65473 v -12.35739 l 0.366386,-1.21905 c 0.450867,-1.49812 1.222853,-2.51658 2.497522,-3.2954 l 0.97255,-0.59377 22.201749,-10e-4 z m -28.92588,3.96668 c -13.306936,0.0289 -12.4349,0.69383 -12.4349,9.47953 v 5.78982 l 0.331762,0.96687 c 0.192275,0.56 1.083316,1.28159 1.619023,1.53376 l 1.037663,0.48834 h 15.950962 c 16.85487,0 16.84483,4.7e-4 18.19166,-1.27383 1.43063,-1.35363 1.4981,-1.69315 1.4981,-7.58713 0,0 0.23315,-3.77153 -0.19121,-5.53713 -0.0903,-0.37565 -0.33589,-0.94309 -0.33589,-0.94309 -1.4673,-2.87615 -1.70362,-2.91197 -19.05259,-2.91197 -2.5236,0 -4.71359,-0.009 -6.61458,-0.005 z m 22.41362,1.96732 c 1.07497,0.48893 1.84185,0.52197 2.14509,2.86804 0.20297,1.56995 0.16149,3.334 0.13849,4.95526 -0.0226,1.59847 0.14533,3.26998 -0.36587,4.76818 -0.10009,0.29333 -0.41186,0.70435 -0.41186,0.70435 -0.30507,0.41044 -0.84086,0.89304 -1.19063,1.0728 -0.85871,0.44128 -31.321649,0.4678 -32.121549,0.0279 -0.291042,-0.16006 -0.714999,-0.3325 -0.93741,-0.66249 l -0.505913,-0.75034 -0.0057,-5.62653 0.03566,-5.4715 c 0,0 0.31982,-0.94905 0.662492,-1.28985 0.377856,-0.37579 0.895948,-0.66993 1.426269,-0.72243 4.916161,-0.48631 9.430861,-0.48147 14.150311,-0.47714 5.66378,0.005 12.67772,-0.20196 16.98062,0.60375 z m -44.625185,3.85558 h 0.780831 v 5.15938 5.15937 l -1.389062,-0.0238 c -2.024138,-0.0348 -3.11166,-0.42209 -4.264339,-1.51774 -3.818476,-3.62953 -0.960671,-8.77724 4.87257,-8.77724 z m 57.401145,0 h 0.51625 c 5.94374,0 9.01289,4.91412 5.43481,8.7018 l -1.15238,1.22008 -2.39934,0.0925 -2.39934,0.0925 v -5.05344 z m -65.896233,4.54184 c 0.222381,0.009 0.280086,0.31513 0.280086,0.96222 0,1.73565 1.66929,4.47738 3.439583,5.64927 l 0.661459,0.43769 -1.045931,1.08366 c -1.226195,1.27028 -1.036747,1.23086 -2.481503,0.51573 -2.826818,-1.39924 -3.892694,-6.44219 -1.722375,-8.14937 0.423026,-0.33276 0.695718,-0.50601 0.868681,-0.4992 z m 75.421753,0.0248 c 0.15296,-0.0278 0.38748,0.13908 0.78755,0.44648 l 0.65526,0.50333 c 0.65794,3.46535 -2.42693,9.31334 -4.96146,7.23832 -1.20904,-1.23818 -1.22123,-1.11456 0.21808,-2.14819 1.43961,-1.03385 2.7018,-3.12071 2.9347,-4.8519 0.10692,-0.79475 0.1692,-1.15233 0.36587,-1.18804 z m 3.24683,1.48156 1.03715,1.01079 c 0.57041,0.55591 1.41722,1.78217 1.88205,2.7249 0,0 0.68614,1.0972 0.84491,1.71411 0.17431,0.67733 0.0961,2.09599 0.0961,2.09599 0.16689,3.64496 -1.24457,5.97422 -4.58732,7.56957 -0.79133,0.37766 -0.66618,-3.64536 -1.46049,-3.52799 -0.79431,0.11738 -0.27551,5.44581 -2.73512,4.1481 -0.12133,-0.064 -0.17673,-1.63166 -0.17673,-3.41064 v -3.23443 c 3.75092,-1.84741 4.86132,-5.37756 5.09945,-9.0904 z m -82.414608,0.42013 c 0.23502,0.0356 0.300948,0.58381 0.378788,1.67173 0.216315,3.02329 1.728195,5.5594 3.897437,6.53759 l 1.070219,0.48266 -0.163815,3.06958 c -0.09004,1.68803 -0.297455,3.20989 -0.46147,3.38222 -0.402039,0.42241 -1.043579,0.5478 -1.796405,0.44834 -0.752827,-0.0995 0.518788,-3.59629 -0.328395,-4.07326 -0.847184,-0.47697 -1.548504,3.66495 -2.233612,2.95483 -0.685109,-0.71011 -3.489735,-3.09973 -3.756338,-3.89862 -0.898163,-2.69141 -0.05609,-6.55433 1.999361,-9.17205 0.75507,-0.96162 1.15921,-1.43866 1.39423,-1.40302 z m 21.487577,21.70979 4.855518,0.077 4.856033,0.077 0.17053,2.79415 c 0.094,1.53659 0.10519,2.90051 0.0243,3.03134 h -5.2e-4 c -0.0809,0.13084 -2.342501,0.23822 -5.026045,0.23822 h -4.879289 v -3.10885 z m 28.310931,0.13229 h 5.49786 5.49785 l 0.0796,2.91041 0.0796,2.91042 -1.27796,0.003 c -0.70275,0.002 -3.21273,0.0791 -5.57744,0.1726 l -4.29948,0.17002 v -3.08354 z m -31.172014,8.2026 c 2.358313,-0.54064 7.665838,-0.19976 7.665838,-0.19976 9.737356,0.002 9.140136,0.21038 10.663806,2.4213 0.70149,1.0179 0.79614,3.31249 -0.82106,3.47913 -2.36298,0.24349 -10.009317,0.20975 -10.009317,0.20975 0,0 -9.811968,0.32885 -10.73496,-0.33946 -1.685288,-1.22026 0.0013,-4.27863 1.949743,-5.01906 0,0 0.874446,-0.45753 1.28595,-0.55187 z m 37.200074,0.004 c 5.93376,-0.003 7.94851,0.08 8.60671,0.35501 2.00811,0.83905 3.52628,3.37308 2.87579,4.80074 l -0.30127,0.66043 -10.84751,0.15849 c -6.01798,0 -10.09483,0.36712 -10.91971,-0.34199 -0.96401,-0.96401 -0.12362,-3.906 1.65366,-4.91264 2.34415,-0.87221 5.24061,-0.60304 8.93233,-0.72004 z"
         sodipodi:nodetypes="sssssscsccsscsccccssssssccsssccccsccsccsscsssccccccccscccccsccccsaccccccccccssaccscccccsccccccssccssscscccscssscccscsssscsccccscsccscsccassccccasssssssssssssscccccccccccccccsccsccsscccssssssssssssssccsscssssssssssscssccscssscccccssscccccccccccsssssssscsssssccsscssccsssssccccccccscccccccsccccsscscscccccscssccccscaccccccssccscccccccscccsscscccssscscscsssscccscccsssssscccccccscccccccccscccccsscscsccccscccc" /><path
         style="fill:#fdecdf;fill-opacity:1;stroke-width:1.91589;stroke-linecap:round;stroke-linejoin:round"
         d="m 337.09715,516.02166 c -12.09329,-0.23065 -12.5178,-0.26748 -14.36254,-1.24595 -6.41648,-3.40337 -12.90491,-9.90098 -16.07727,-16.10004 -0.91862,-1.79507 -0.99111,-2.55957 -1.3017,-13.72889 -0.1809,-6.50539 -0.23887,-16.01001 -0.12881,-21.12138 0.11005,-5.11137 0.4926,-26.972 0.85011,-48.57916 0.71411,-43.15921 0.68511,-42.74548 3.39168,-48.39314 3.49969,-7.30263 8.51009,-12.458 16.32219,-16.79445 l 2.42256,-1.34474 93.25727,-0.006 93.25727,-0.006 3.08292,1.57792 c 6.59249,3.37422 11.47884,8.12874 14.23747,13.85339 5.24194,10.87792 6.28058,26.25985 6.26093,92.72284 l -0.0117,39.49697 -1.15853,2.53456 c -2.85518,6.24636 -8.83383,12.45443 -14.90319,15.47507 l -3.70609,1.84446 -84.4855,0.0264 c -46.46702,0.0145 -90.09322,-0.0805 -96.94711,-0.21121 z m 92.68854,-21.9971 c 4.91079,-1.87476 8.25926,-6.32602 8.26751,-10.99032 0.006,-3.57263 -1.47536,-5.03313 -3.82847,-3.77378 -0.45103,0.24139 -1.47055,1.73059 -2.2656,3.30933 -1.67016,3.31651 -3.79775,5.3822 -5.96155,5.78813 -0.83441,0.15654 -2.97701,0.19816 -4.76134,0.0925 -5.24582,-0.31068 -8.47127,-2.23574 -10.31386,-6.15567 -1.45804,-3.10186 -3.22316,-3.78566 -5.25676,-2.03644 -0.95004,0.8172 -1.17048,1.34587 -1.13443,2.72075 0.11808,4.50308 5.78832,9.8 12.51651,11.69245 3.2158,0.90451 9.51167,0.58476 12.73799,-0.64693 z M 372.82315,473.1115 c 4.44048,-1.12381 8.47432,-3.47762 12.46028,-7.27078 5.9511,-5.66325 8.1449,-10.98907 8.13836,-19.75727 -0.006,-8.36028 -2.36175,-14.2571 -7.94734,-19.89549 -5.8523,-5.90763 -12.67486,-8.52246 -21.11296,-8.09181 -10.31015,0.5262 -19.2674,5.97818 -23.40571,14.24626 -2.38151,4.75811 -3.16675,8.67674 -2.90992,14.52152 0.82354,18.74157 16.79781,30.79788 34.77729,26.24757 z m 113.19655,0.006 c 8.99043,-2.26579 16.8218,-9.56973 19.70158,-18.37472 1.26211,-3.85891 1.52941,-11.11375 0.56861,-15.43237 -1.09614,-4.92695 -4.01923,-10.36048 -7.38356,-13.72481 -8.57206,-8.57205 -22.90334,-10.05237 -34.50536,-3.56416 -5.95971,3.33287 -10.91837,9.79831 -12.62232,16.45789 -0.74898,2.92729 -0.8717,10.11429 -0.22217,13.0126 2.40645,10.73807 9.8965,18.76977 19.96366,21.40736 3.86276,1.01204 10.92784,1.11837 14.49956,0.21821 z M 325.34665,405.72823 c 1.33904,-1.80213 1.70027,-6.1106 1.54616,-18.4415 l -0.14514,-11.61267 -0.99726,-0.80725 c -1.18966,-0.963 -3.44221,-1.04534 -5.10297,-0.18652 l -1.20036,0.62073 -0.31592,7.511 c -0.39566,9.40665 -0.007,19.86917 0.81076,21.82639 0.33077,0.79165 0.95187,1.64787 1.38022,1.90273 1.25818,0.74858 3.14789,0.36688 4.02451,-0.81291 z m 33.01626,-38.76219 c 1.62734,-0.54143 2.26377,-0.9964 2.55112,-1.82375 0.68687,-1.97769 0.01,-3.30491 -2.18323,-4.27818 -1.64298,-0.72923 -3.10016,-0.91775 -8.34104,-1.0791 -7.38062,-0.22723 -12.68524,0.36245 -15.40214,1.71215 -1.66139,0.82535 -1.91726,1.13372 -2.01144,2.42414 -0.0695,0.95198 0.18339,1.85219 0.71007,2.52787 0.77114,0.98929 1.12808,1.06545 6.23311,1.33004 7.84991,0.40684 15.83475,0.0548 18.44355,-0.81317 z"
         id="path14530"
         transform="scale(0.26458333)" /><path
         style="fill:#fdecdf;fill-opacity:1;stroke-width:1.91589;stroke-linecap:round;stroke-linejoin:round"
         d="m 335.36156,657.59845 c -9.87461,-7.04241 -10.34286,-8.83706 -10.93502,-41.91036 -0.20591,-11.50059 -0.38569,-32.1158 -0.39952,-45.81159 l -0.0251,-24.90142 1.09966,-3.60523 c 2.1791,-7.14415 4.54823,-10.52451 9.78605,-13.96309 l 3.22649,-2.11816 h 84.23518 84.23518 l 3.6493,2.17924 c 8.68922,5.1889 10.15642,8.9201 11.08693,28.19505 0.58159,12.04729 0.2566,75.20695 -0.41972,81.569 -1.4624,13.75667 -3.65951,17.7066 -11.73449,21.09619 l -3.07905,1.29247 -83.96711,-0.0156 -83.9671,-0.0156 z m 147.50775,-49.6094 c 4.04031,-0.82557 5.29179,-1.48007 8.13183,-4.25284 2.69927,-2.63532 3.83361,-4.69086 4.4848,-8.12683 0.72338,-3.81693 1.10054,-33.3273 0.48572,-38.00507 -0.54169,-4.1214 -2.38941,-8.71396 -4.65856,-11.57899 -2.4825,-3.13442 -7.13853,-4.70634 -16.50458,-5.57213 -7.23424,-0.66873 -85.54373,-1.01085 -96.85345,-0.42313 -16.44408,0.85452 -21.80692,2.43779 -25.32322,7.4762 -2.47931,3.55252 -2.58628,4.65308 -2.75921,28.38713 -0.14273,19.58965 -0.0885,21.8774 0.56533,23.84589 0.9555,2.87673 3.86106,5.9387 7.3516,7.74734 l 2.75231,1.42613 59.56227,-0.13463 c 51.76226,-0.11699 59.98172,-0.22033 62.76516,-0.78907 z"
         id="path14532"
         transform="scale(0.26458333)" /><path
         style="fill:#fdecdf;fill-opacity:1;stroke-width:1.91589;stroke-linecap:round;stroke-linejoin:round"
         d="m 328.93497,721.66252 c -3.46666,-0.4456 -4.30326,-0.85207 -5.37653,-2.61226 -2.02687,-3.32415 -0.32546,-9.19655 3.88418,-13.40619 2.42933,-2.42932 7.78235,-5.16258 11.42679,-5.83453 4.63009,-0.85369 12.11989,-0.97189 32.65558,-0.51537 26.76216,0.59494 28.78369,0.95185 32.38391,5.71755 3.98647,5.27699 5.03338,9.32017 3.38071,13.05632 -1.3632,3.08173 -2.00818,3.2349 -15.4564,3.67042 -14.48355,0.46905 -59.07718,0.41521 -62.89824,-0.0759 z"
         id="path14534"
         transform="scale(0.26458333)" /><path
         style="fill:#000000;fill-opacity:0;stroke-width:1.91589;stroke-linecap:round;stroke-linejoin:round"
         d="m 441.06511,722.13753 c -2.55688,-0.54561 -3.6901,-1.39344 -4.28932,-3.20911 -0.97316,-2.94868 0.50331,-8.67732 3.11231,-12.07563 4.52292,-5.89128 9.34156,-6.6836 40.57892,-6.67233 22.37851,0.008 27.72491,0.33119 30.85997,1.86503 4.34005,2.12339 8.55936,7.30396 9.74865,11.96965 0.68987,2.70636 0.63352,3.39597 -0.49493,6.0573 l -0.64589,1.52326 -14.43142,0.2706 c -27.9116,0.52336 -62.57304,0.66925 -64.43829,0.27123 z"
         id="path14536"
         transform="scale(0.26458333)" /><path
         style="fill:#000000;fill-opacity:0;stroke-width:1.91589;stroke-linecap:round;stroke-linejoin:round"
         d="m 370.39366,602.14789 c -9.65736,-0.36217 -10.79559,-0.73533 -13.07418,-4.2862 l -1.30307,-2.03067 0.15597,-20.80307 c 0.15573,-20.7697 0.15756,-20.80628 1.13899,-22.81011 1.24467,-2.54127 3.44475,-4.36511 5.93434,-4.9195 6.02745,-1.34221 29.17938,-2.1349 62.56121,-2.142 27.51957,-0.006 41.45,0.40869 49.78184,1.4814 8.72326,1.12311 11.60807,2.80602 13.22958,7.71775 0.88091,2.66837 0.94249,3.7115 1.10146,18.65747 0.17707,16.64736 -0.0226,19.36792 -1.65918,22.60982 -1.00088,1.98261 -2.9858,4.15675 -4.85144,5.31392 -1.18797,0.73684 -2.5986,0.86523 -13.51768,1.23026 -13.90731,0.46493 -86.96518,0.45093 -99.49784,-0.0191 z"
         id="path18057"
         transform="scale(0.26458333)" /><path
         style="fill:#000000;fill-opacity:0;stroke-width:1.91589;stroke-linecap:round;stroke-linejoin:round"
         d="m 370.39366,602.14789 c -9.65736,-0.36217 -10.79559,-0.73533 -13.07418,-4.2862 l -1.30307,-2.03067 0.15597,-20.80307 c 0.15573,-20.7697 0.15756,-20.80628 1.13899,-22.81011 1.24467,-2.54127 3.44475,-4.36511 5.93434,-4.9195 6.02745,-1.34221 29.17938,-2.1349 62.56121,-2.142 27.51957,-0.006 41.45,0.40869 49.78184,1.4814 8.72326,1.12311 11.60807,2.80602 13.22958,7.71775 0.88091,2.66837 0.94249,3.7115 1.10146,18.65747 0.17707,16.64736 -0.0226,19.36792 -1.65918,22.60982 -1.00088,1.98261 -2.9858,4.15675 -4.85144,5.31392 -1.18797,0.73684 -2.5986,0.86523 -13.51768,1.23026 -13.90731,0.46493 -86.96518,0.45093 -99.49784,-0.0191 z"
         id="path18059"
         transform="scale(0.26458333)" /><path
         style="fill:#000000;fill-opacity:0;stroke-width:1.91589;stroke-linecap:round;stroke-linejoin:round"
         d="m 370.39366,602.14789 c -9.65736,-0.36217 -10.79559,-0.73533 -13.07418,-4.2862 l -1.30307,-2.03067 0.15597,-20.80307 c 0.15573,-20.7697 0.15756,-20.80628 1.13899,-22.81011 1.24467,-2.54127 3.44475,-4.36511 5.93434,-4.9195 6.02745,-1.34221 29.17938,-2.1349 62.56121,-2.142 27.51957,-0.006 41.45,0.40869 49.78184,1.4814 8.72326,1.12311 11.60807,2.80602 13.22958,7.71775 0.88091,2.66837 0.94249,3.7115 1.10146,18.65747 0.17707,16.64736 -0.0226,19.36792 -1.65918,22.60982 -1.00088,1.98261 -2.9858,4.15675 -4.85144,5.31392 -1.18797,0.73684 -2.5986,0.86523 -13.51768,1.23026 -13.90731,0.46493 -86.96518,0.45093 -99.49784,-0.0191 z"
         id="path18061"
         transform="scale(0.26458333)" /><path
         style="fill:#000000;fill-opacity:0;stroke-width:1.91589;stroke-linecap:round;stroke-linejoin:round"
         d="m 370.39366,602.14789 c -9.65736,-0.36217 -10.79559,-0.73533 -13.07418,-4.2862 l -1.30307,-2.03067 0.15597,-20.80307 c 0.15573,-20.7697 0.15756,-20.80628 1.13899,-22.81011 1.24467,-2.54127 3.44475,-4.36511 5.93434,-4.9195 6.02745,-1.34221 29.17938,-2.1349 62.56121,-2.142 27.51957,-0.006 41.45,0.40869 49.78184,1.4814 8.72326,1.12311 11.60807,2.80602 13.22958,7.71775 0.88091,2.66837 0.94249,3.7115 1.10146,18.65747 0.17707,16.64736 -0.0226,19.36792 -1.65918,22.60982 -1.00088,1.98261 -2.9858,4.15675 -4.85144,5.31392 -1.18797,0.73684 -2.5986,0.86523 -13.51768,1.23026 -13.90731,0.46493 -86.96518,0.45093 -99.49784,-0.0191 z"
         id="path18065"
         transform="scale(0.26458333)" /><path
         style="fill:#000000;fill-opacity:0;stroke-width:1.91589;stroke-linecap:round;stroke-linejoin:round"
         d="m 329.8991,515.60511 c -5.59631,-0.23831 -5.77255,-0.27541 -8.17928,-1.72205 -5.34436,-3.21239 -10.9631,-8.81853 -14.14325,-14.11152 -1.38907,-2.31195 -1.43871,-2.55317 -1.77009,-8.60171 -0.51149,-9.33591 -0.45648,-24.98085 0.22248,-63.27048 0.69877,-39.40644 0.98135,-49.39356 1.52052,-53.73872 1.03507,-8.34164 7.88383,-17.61708 16.99578,-23.01777 l 4.09809,-2.42895 h 92.73751 92.7375 l 2.62813,1.32509 c 10.64474,5.36705 16.07468,12.70417 18.40204,24.86541 2.15329,11.2516 2.57422,22.26509 2.88189,75.40331 l 0.26415,45.62217 -1.3844,2.74578 c -3.66394,7.2669 -8.80247,12.42575 -15.9394,16.00244 l -2.62813,1.31709 -91.36199,-0.0733 c -50.2491,-0.0403 -93.9358,-0.18287 -97.08155,-0.31682 z m 97.68235,-20.78334 c 3.00437,-0.63679 5.09654,-1.74988 7.15138,-3.80472 2.34376,-2.34376 3.30387,-4.62972 3.31522,-7.89336 0.012,-3.43672 -0.45007,-4.30211 -2.29681,-4.30211 -1.59382,0 -2.10049,0.51424 -4.8914,4.96452 -2.47248,3.94252 -3.44852,4.40832 -8.85476,4.22578 -3.49396,-0.11797 -4.79417,-0.33888 -6.1252,-1.04071 -1.97009,-1.03879 -3.62852,-2.72094 -4.62094,-4.68703 -1.59914,-3.16806 -3.80918,-3.92162 -5.87807,-2.00424 -2.88205,2.671 0.22713,8.71206 6.34331,12.32489 4.36897,2.58076 10.25712,3.40398 15.85727,2.21698 z m -55.71742,-21.32501 c 4.05641,-0.90473 7.60827,-2.63386 11.2279,-5.46602 7.77573,-6.08409 11.02349,-13.44197 10.43336,-23.637 -0.4779,-8.25616 -2.38203,-12.57365 -8.02062,-18.18624 -6.11666,-6.08846 -11.12753,-8.19696 -19.50927,-8.20924 -13.61481,-0.0199 -24.36407,7.91288 -27.46695,20.27028 -1.08418,4.31781 -0.64872,12.63787 0.90322,17.2571 3.15054,9.37737 10.89135,16.33596 20.26535,18.21751 2.9097,0.58403 8.99638,0.46077 12.16701,-0.24639 z m 114.77246,-0.36903 c 7.1628,-1.89508 14.46718,-7.93716 17.64837,-14.5985 2.14527,-4.49216 2.62815,-6.84399 2.62815,-12.80025 0,-5.6683 -0.63338,-8.46686 -3.02693,-13.37443 -2.13906,-4.38578 -6.71868,-9.19648 -10.78056,-11.32452 -7.9215,-4.15012 -18.84205,-4.08556 -27.50434,0.16261 -5.37283,2.63495 -10.68935,8.42471 -13.03347,14.19362 -1.28972,3.17401 -1.90731,9.30625 -1.41642,14.06414 1.12579,10.91164 9.64716,20.84436 20.27781,23.63627 3.13731,0.82395 12.15626,0.8483 15.20739,0.0411 z m -161.8064,-66.53234 c 1.66657,-0.89192 1.86827,-2.59718 2.03181,-17.17785 l 0.15704,-14.00073 -0.96887,-0.67863 c -1.12334,-0.78681 -4.0728,-0.89285 -5.59122,-0.20102 -0.89696,0.40869 -1.0886,0.85463 -1.32802,3.09028 -0.15389,1.43697 -0.20197,7.82776 -0.10684,14.20175 0.17616,11.80328 0.39777,13.50374 1.90946,14.65168 0.83098,0.63102 2.8222,0.68954 3.89664,0.11452 z m 33.17722,-39.30227 c 2.38765,-0.70483 3.16821,-1.53556 3.16821,-3.37182 0,-3.30645 -2.8046,-4.22715 -12.84557,-4.21694 -11.28526,0.0115 -15.11841,1.13167 -15.37167,4.49224 -0.16945,2.24862 0.93429,3.22239 4.07587,3.5959 3.65889,0.43501 19.04922,0.0686 20.97316,-0.49938 z"
         id="path18067"
         transform="scale(0.26458333)" /><path
         style="fill:#ff0000;fill-opacity:0;stroke-width:1.91589;stroke-linecap:round;stroke-linejoin:round"
         d="m 338.94471,339.08442 c 0.45036,-0.72871 6.81563,-4.83858 10.82526,-6.98957 8.55109,-4.58728 22.31148,-9.65802 34.00542,-12.53109 17.44515,-4.28607 31.86803,-5.61678 50.79304,-4.68635 13.42299,0.65993 19.8413,1.84296 32.47392,5.98562 11.53838,3.78382 21.4515,8.23875 32.20844,14.47439 l 5.22183,3.02701 -2.05362,0.29053 c -3.78835,0.53595 -163.7999,0.9563 -163.47429,0.42946 z"
         id="path18069"
         transform="scale(0.26458333)" /><path
         style="fill:#ff0000;fill-opacity:0;stroke-width:1.91589;stroke-linecap:round;stroke-linejoin:round"
         d="m 370.39366,602.14789 c -9.65736,-0.36217 -10.79559,-0.73533 -13.07418,-4.2862 l -1.30307,-2.03067 0.15597,-20.80307 c 0.15573,-20.7697 0.15756,-20.80628 1.13899,-22.81011 1.24467,-2.54127 3.44475,-4.36511 5.93434,-4.9195 6.02745,-1.34221 29.17938,-2.1349 62.56121,-2.142 27.51957,-0.006 41.45,0.40869 49.78184,1.4814 8.72326,1.12311 11.60807,2.80602 13.22958,7.71775 0.88091,2.66837 0.94249,3.7115 1.10146,18.65747 0.17707,16.64736 -0.0226,19.36792 -1.65918,22.60982 -1.00088,1.98261 -2.9858,4.15675 -4.85144,5.31392 -1.18797,0.73684 -2.5986,0.86523 -13.51768,1.23026 -13.90731,0.46493 -86.96518,0.45093 -99.49784,-0.0191 z"
         id="path18140"
         transform="scale(0.26458333)" /><path
         style="display:inline;fill:#ff0000;fill-opacity:0;stroke-width:1.91589;stroke-linecap:round;stroke-linejoin:round"
         d=""
         id="path18819"
         transform="scale(0.26458333)" /><path
         style="fill:#ff0000;fill-opacity:0;stroke-width:1.91589;stroke-linecap:round;stroke-linejoin:round"
         d="m 474.38609,469.9413 c -13.25362,-2.66027 -21.46565,-15.62872 -18.58496,-29.34941 3.89742,-18.56333 26.88694,-25.81119 39.86404,-12.56787 3.28752,3.35496 5.2448,6.82321 6.40029,11.34114 2.86008,11.18282 -2.48125,23.78584 -11.99572,28.30424 -4.97273,2.36154 -10.9345,3.22515 -15.68365,2.2719 z m 11.29915,-5.0705 c 6.41102,-1.96728 11.54264,-7.62453 12.94145,-14.26705 1.87129,-8.88611 -2.57317,-18.79319 -10.1345,-22.5907 -9.8437,-4.94377 -21.57399,-1.58432 -26.45695,7.57705 -3.45471,6.4817 -3.53273,14.41269 -0.20247,20.58272 2.52305,4.6745 8.25973,8.80611 13.26058,9.5504 2.9718,0.44229 7.58164,0.0713 10.59189,-0.85242 z"
         id="path18821"
         transform="scale(0.26458333)" /><path
         style="fill:#ff0000;fill-opacity:0;stroke-width:1.91589;stroke-linecap:round;stroke-linejoin:round"
         d="m 474.38609,469.9413 c -13.25362,-2.66027 -21.46565,-15.62872 -18.58496,-29.34941 3.89742,-18.56333 26.88694,-25.81119 39.86404,-12.56787 3.28752,3.35496 5.2448,6.82321 6.40029,11.34114 2.86008,11.18282 -2.48125,23.78584 -11.99572,28.30424 -4.97273,2.36154 -10.9345,3.22515 -15.68365,2.2719 z m 11.29915,-5.0705 c 6.41102,-1.96728 11.54264,-7.62453 12.94145,-14.26705 1.87129,-8.88611 -2.57317,-18.79319 -10.1345,-22.5907 -9.8437,-4.94377 -21.57399,-1.58432 -26.45695,7.57705 -3.45471,6.4817 -3.53273,14.41269 -0.20247,20.58272 2.52305,4.6745 8.25973,8.80611 13.26058,9.5504 2.9718,0.44229 7.58164,0.0713 10.59189,-0.85242 z"
         id="path18823"
         transform="scale(0.26458333)" /><path
         style="fill:#0800ff;fill-opacity:0;stroke-width:1.91589;stroke-linecap:round;stroke-linejoin:round"
         d="m 338.57565,339.29766 c 0,-0.67906 9.2125,-6.21364 14.93191,-8.97062 17.59728,-8.48258 38.7226,-13.95306 59.62654,-15.44052 7.19593,-0.51204 21.9019,-0.26593 29.99235,0.50193 16.03086,1.52149 39.04082,9.75027 56.8165,20.31859 l 4.43549,2.63707 -2.11214,0.30132 c -2.6059,0.37176 -163.69065,1.01361 -163.69065,0.65223 z"
         id="path18825"
         transform="scale(0.26458333)" /><path
         style="fill:#0800ff;fill-opacity:0;stroke-width:1.91589;stroke-linecap:round;stroke-linejoin:round"
         d="m 338.57565,339.29766 c 0,-0.67906 9.2125,-6.21364 14.93191,-8.97062 17.59728,-8.48258 38.7226,-13.95306 59.62654,-15.44052 7.19593,-0.51204 21.9019,-0.26593 29.99235,0.50193 16.03086,1.52149 39.04082,9.75027 56.8165,20.31859 l 4.43549,2.63707 -2.11214,0.30132 c -2.6059,0.37176 -163.69065,1.01361 -163.69065,0.65223 z"
         id="path18896"
         transform="scale(0.26458333)" /><path
         style="fill:#0800ff;fill-opacity:0;stroke-width:1.91589;stroke-linecap:round;stroke-linejoin:round"
         d="m 338.57565,339.29766 c 0,-0.67906 9.2125,-6.21364 14.93191,-8.97062 17.59728,-8.48258 38.7226,-13.95306 59.62654,-15.44052 7.19593,-0.51204 21.9019,-0.26593 29.99235,0.50193 16.03086,1.52149 39.04082,9.75027 56.8165,20.31859 l 4.43549,2.63707 -2.11214,0.30132 c -2.6059,0.37176 -163.69065,1.01361 -163.69065,0.65223 z"
         id="path18898"
         transform="scale(0.26458333)" /><path
         style="fill:#5ae2f4;fill-opacity:1;stroke-width:1.91589;stroke-linecap:round;stroke-linejoin:round"
         d="m 338.57565,339.29766 c 0,-0.67906 9.2125,-6.21364 14.93191,-8.97062 17.59728,-8.48258 38.7226,-13.95306 59.62654,-15.44052 7.19593,-0.51204 21.9019,-0.26593 29.99235,0.50193 16.03086,1.52149 39.04082,9.75027 56.8165,20.31859 l 4.43549,2.63707 -2.11214,0.30132 c -2.6059,0.37176 -163.69065,1.01361 -163.69065,0.65223 z"
         id="path18900"
         transform="scale(0.26458333)" /><path
         style="fill:#5ae2f4;fill-opacity:1;stroke-width:1.91589;stroke-linecap:round;stroke-linejoin:round"
         d="m 289.78527,472.69682 c -4.77901,-1.68598 -7.0767,-8.9891 -7.11047,-22.60031 -0.0144,-5.79475 0.18203,-8.10975 1.16478,-13.7289 2.13214,-12.19112 2.9342,-13.14426 12.07089,-14.34455 l 1.90092,-0.24973 -0.0889,15.95691 c -0.0489,8.77629 -0.21275,20.37655 -0.36409,25.77834 l -0.27517,9.82144 -2.80412,-0.0185 c -1.54227,-0.0102 -3.56449,-0.2868 -4.49383,-0.61466 z"
         id="path21662"
         transform="scale(0.26458333)" /><path
         style="fill:#5ae2f4;fill-opacity:1;stroke-width:1.91589;stroke-linecap:round;stroke-linejoin:round"
         d="m 548.09969,461.83683 c 0,-5.91658 -0.12607,-17.35911 -0.28015,-25.42783 l -0.28016,-14.6704 3.76518,0.29537 c 2.07085,0.16246 4.31405,0.57346 4.9849,0.91335 5.57883,2.82655 8.48192,14.43609 7.44758,29.78314 -0.61085,9.06359 -1.95957,14.90329 -3.95446,17.12217 -1.10015,1.22366 -3.95721,2.06771 -8.27362,2.44423 l -3.40927,0.2974 z"
         id="path21664"
         transform="scale(0.26458333)" /><path
         style="fill:#5ae2f4;fill-opacity:1;stroke-width:1.91589;stroke-linecap:round;stroke-linejoin:round"
         d="m 361.70921,469.9621 c -7.51585,-1.36079 -13.82991,-6.04721 -17.20685,-12.77127 -2.11145,-4.20425 -2.6809,-7.06401 -2.4577,-12.34249 0.38496,-9.104 5.02763,-16.73148 12.60899,-20.71537 11.88065,-6.24311 26.91428,-1.2371 32.66247,10.87618 1.7821,3.75546 2.37325,6.49702 2.37325,11.00634 0,6.72696 -2.27172,12.28252 -6.95447,17.00733 -3.12201,3.15005 -7.17805,5.4723 -11.25867,6.44606 -2.83532,0.67659 -7.46339,0.9103 -9.76702,0.49322 z m 11.53337,-4.62699 c 4.45177,-1.66777 8.8098,-6.72086 11.2717,-13.06942 2.10441,-5.42668 1.3044,-12.21748 -2.05628,-17.45466 -3.69051,-5.75116 -10.9259,-9.12562 -18.62763,-8.68759 -3.07089,0.17465 -4.19658,0.45396 -6.78649,1.68391 -9.16412,4.35202 -13.35967,15.18099 -9.79552,25.28285 1.02862,2.91541 2.47754,5.09086 4.94488,7.42437 5.60748,5.30332 14.39117,7.31488 21.04934,4.82054 z"
         id="path21666"
         transform="scale(0.26458333)" /><path
         style="fill:#5ae2f4;fill-opacity:1;stroke-width:1.91589;stroke-linecap:round;stroke-linejoin:round"
         d="m 474.38609,469.9413 c -13.25362,-2.66027 -21.46565,-15.62872 -18.58496,-29.34941 3.89742,-18.56333 26.88694,-25.81119 39.86404,-12.56787 3.28752,3.35496 5.2448,6.82321 6.40029,11.34114 2.86008,11.18282 -2.48125,23.78584 -11.99572,28.30424 -4.97273,2.36154 -10.9345,3.22515 -15.68365,2.2719 z m 11.29915,-5.0705 c 6.41102,-1.96728 11.54264,-7.62453 12.94145,-14.26705 1.87129,-8.88611 -2.57317,-18.79319 -10.1345,-22.5907 -9.8437,-4.94377 -21.57399,-1.58432 -26.45695,7.57705 -3.45471,6.4817 -3.53273,14.41269 -0.20247,20.58272 2.52305,4.6745 8.25973,8.80611 13.26058,9.5504 2.9718,0.44229 7.58164,0.0713 10.59189,-0.85242 z"
         id="path21668"
         transform="scale(0.26458333)" /><path
         style="fill:#5ae2f4;fill-opacity:1;stroke-width:1.91589;stroke-linecap:round;stroke-linejoin:round"
         d="m 285.30093,612.01971 c -5.69105,-2.83926 -9.60893,-8.16205 -11.16894,-15.174 -1.46611,-6.5899 -0.14744,-12.1233 3.71715,-15.5979 3.00609,-2.70273 3.5671,-2.56434 3.90345,0.9629 0.78264,8.2075 5.70874,16.5174 12.9708,21.88064 l 2.40356,1.77509 -3.93076,3.85475 c -2.16192,2.12012 -4.12092,3.85476 -4.35333,3.85476 -0.23242,0 -1.82629,-0.70031 -3.54193,-1.55624 z"
         id="path21670"
         transform="scale(0.26458333)" /><path
         style="fill:#5ae2f4;fill-opacity:1;stroke-width:1.91589;stroke-linecap:round;stroke-linejoin:round"
         d="m 553.9891,610.65591 c -1.63068,-0.88837 -4.74444,-4.56643 -4.37368,-5.16633 0.12566,-0.20332 1.59438,-1.43894 3.26382,-2.74581 3.67901,-2.88002 4.80614,-4.0998 7.47502,-8.0895 2.46347,-3.68265 3.6783,-6.73701 4.48137,-11.26721 0.32806,-1.8506 0.77648,-3.54474 0.99649,-3.76475 0.37606,-0.37607 1.68847,0.37675 4.64176,2.66258 0.97459,0.75433 1.03886,1.04623 0.99901,4.53748 -0.0724,6.34268 -2.48577,13.66476 -6.23627,18.92063 -3.53796,4.958 -7.77086,6.80693 -11.24752,4.91291 z"
         id="path21672"
         transform="scale(0.26458333)" /><path
         style="fill:#5ae2f4;fill-opacity:1;stroke-width:1.91589;stroke-linecap:round;stroke-linejoin:round"
         d="m 348.29148,680.2142 v -11.62559 l 15.52421,0.17623 c 8.53831,0.0969 16.68469,0.27734 18.10305,0.40094 l 2.57883,0.22471 0.25985,3.66919 c 0.14292,2.01805 0.38896,6.82565 0.54676,10.68356 l 0.2869,7.01437 -1.22467,0.29028 c -0.67356,0.15965 -9.06597,0.40314 -18.6498,0.54109 l -17.42513,0.25081 z"
         id="path21674"
         transform="scale(0.26458333)" /><path
         style="fill:#552140;fill-opacity:1;stroke-width:1.91589;stroke-linecap:round;stroke-linejoin:round"
         d="m 455.16564,680.48207 v -11.56812 h 20.50099 c 16.0324,0 20.53645,0.1151 20.66369,0.52804 0.0895,0.29042 0.26761,5.23282 0.39583,10.98311 l 0.23313,10.45508 h -7.05303 c -6.47201,0 -25.80603,0.60394 -32.10044,1.00273 l -2.64017,0.16727 z"
         id="path21676"
         transform="scale(0.26458333)" /><path
         style="fill:#552140;fill-opacity:1;stroke-width:1.91589;stroke-linecap:round;stroke-linejoin:round"
         d="m 363.28765,465.55087 c -7.89415,-1.01099 -12.06037,-5.01921 -14.96479,-11.25406 -4.79934,-10.3026 -0.12961,-22.7303 10.00039,-26.61441 2.98115,-1.14305 7.9535,-1.51431 11.2145,-0.83733 3.43988,0.71412 7.79212,3.02157 10.15594,5.38445 4.17819,4.17649 6.49979,11.39917 5.37564,16.72397 -0.77969,3.69318 -3.54944,8.8399 -6.39331,11.88001 -4.16268,4.44992 -9.22937,5.50614 -15.38837,4.71737 z"
         id="path24852"
         transform="scale(0.26458333)"
         sodipodi:nodetypes="ssssssss" /><path
         style="fill:#322d47;fill-opacity:1;stroke-width:1.91589;stroke-linecap:round;stroke-linejoin:round"
         d="m 474.97759,465.29831 c -6.55669,-1.10898 -12.70347,-7.05005 -14.57802,-14.09014 -2.38195,-8.94563 1.88397,-19.01419 9.69077,-22.87252 13.45915,-6.65187 28.58533,2.92711 28.58533,18.10226 0,11.95749 -11.3069,20.95621 -23.69808,18.8604 z m 2.37584,-20.70309 c 2.34193,-2.20012 2.31915,-6.01576 -0.0527,-8.83458 -1.20933,-1.43721 -3.77872,-2.3846 -5.37835,-1.98312 -1.39411,0.3499 -3.53427,2.17488 -4.31027,3.6755 -2.16306,4.18289 1.30008,8.62359 6.46044,8.28407 1.61626,-0.10633 2.50958,-0.41724 3.28091,-1.14187 z"
         id="path24854"
         transform="scale(0.26458333)" /><path
         style="fill:#ffffff;fill-opacity:1;stroke-width:1.91589;stroke-linecap:round;stroke-linejoin:round"
         d="m 357.29995,444.83343 c -2.69858,-1.17383 -3.83451,-4.8217 -2.27568,-7.308 1.05323,-1.67988 3.20871,-3.05504 4.79193,-3.05716 1.76058,-0.002 3.94737,1.0547 4.76575,2.30371 1.66393,2.53948 0.32611,6.22666 -1.50369,7.5083 -1.15787,0.811 -3.94334,1.35132 -5.77831,0.55313 z"
         id="path39831"
         transform="scale(0.26458333)"
         sodipodi:nodetypes="sscssss" /><path
         style="fill:#ffffff;fill-opacity:1;stroke-width:1.91589;stroke-linecap:round;stroke-linejoin:round"
         d="m 470.98573,444.85562 c -2.05638,-0.8957 -3.5697,-2.99603 -3.5697,-4.95437 0,-1.40054 0.30033,-1.99814 1.79532,-3.57234 2.28225,-2.40319 4.09414,-2.80366 6.19197,-1.36857 3.04515,2.08314 4.07917,4.95594 2.77389,7.70662 -1.2183,2.56738 -4.22275,3.48176 -7.19148,2.18866 z"
         id="path39833"
         transform="scale(0.26458333)" /><path
         style="fill:#ff8a5e;fill-opacity:1;stroke-width:1.91589;stroke-linecap:round;stroke-linejoin:round"
         d="m 370.45674,602.15902 c -9.21268,-0.34217 -10.52953,-0.7383 -12.82347,-3.85758 l -1.31567,-1.78903 v -21.00313 c 0,-19.9759 0.0408,-21.09833 0.83429,-22.94946 0.89423,-2.08615 2.4192,-3.72921 4.4264,-4.76917 1.71405,-0.88807 11.41693,-1.66184 28.27458,-2.25481 16.26593,-0.57215 72.31543,-0.28594 79.46409,0.40577 11.62842,1.12518 15.56765,2.18567 17.74919,4.77829 2.54323,3.02245 3.31528,9.96085 3.0484,27.39583 -0.21511,14.05285 -0.47905,15.90269 -2.69964,18.92082 -1.2856,1.74735 -3.14528,3.43058 -4.6854,4.24085 -0.60654,0.31911 -5.26431,0.64387 -12.88404,0.89833 -13.50597,0.45104 -87.12806,0.43866 -99.38873,-0.0167 z"
         id="path41907"
         transform="scale(0.26458333)" /><path
         style="fill:#fed16c;fill-opacity:1;stroke-width:1.91589;stroke-linecap:round;stroke-linejoin:round"
         d="m 330.12709,515.59607 c -6.34562,-0.27176 -6.9713,-0.48308 -11.61675,-3.92357 -4.90896,-3.63565 -10.55918,-10.23132 -12.0628,-14.08126 -1.04186,-2.66763 -1.15636,-24.25943 -0.36948,-69.67218 0.42673,-24.62752 0.89322,-46.58319 1.03665,-48.79037 0.40763,-6.27276 0.98394,-8.79712 2.87558,-12.59555 3.24221,-6.5104 8.04084,-11.51784 15.03928,-15.6937 l 3.56223,-2.12553 h 92.87367 92.87368 l 1.77848,0.89279 c 6.6445,3.33552 12.53717,8.68177 15.20594,13.79591 5.68606,10.89614 6.62723,23.9613 6.63386,92.09039 l 0.004,41.09162 -1.45493,2.88911 c -3.17211,6.29896 -8.99989,12.00224 -15.74495,15.40857 l -2.2035,1.1129 -91.36399,-0.0774 c -50.2502,-0.0426 -93.93024,-0.18735 -97.06677,-0.32168 z m 97.16104,-20.72276 c 6.2625,-1.18766 10.99461,-6.36569 10.97418,-12.00832 -0.0101,-2.77047 -0.77041,-3.8322 -2.74451,-3.8322 -1.61631,0 -1.72661,0.0946 -3.44786,2.95699 -0.97798,1.62635 -2.10792,3.82771 -3.15663,4.61943 0,0 -1.40315,1.11671 -2.23739,1.39105 -1.41436,0.46512 -2.9436,0.40498 -4.45262,0.35333 -6.16611,-0.21105 -7.84919,-1.3841 -10.78035,-5.75015 -2.41059,-3.59063 -3.72869,-4.15693 -5.82943,-2.50448 -2.30241,1.81107 -1.25249,6.15051 2.31098,9.55157 5.10753,4.87474 11.7507,6.66654 19.36363,5.22278 z m -54.75332,-21.53146 c 5.13653,-1.31371 8.77746,-3.47529 13.1832,-7.82674 6.35272,-6.27444 8.06956,-10.99471 7.66688,-21.07929 -0.2516,-6.30113 -1.21657,-9.5632 -4.10752,-13.88553 -3.5766,-5.34745 -8.98641,-9.62903 -14.34249,-11.35133 -3.8119,-1.22575 -11.33892,-1.52433 -15.66029,-0.6212 -8.06076,1.68463 -15.29161,7.09902 -18.5462,13.88723 -0.91772,1.91411 -1.9111,4.33561 -2.20753,5.38112 -0.80449,2.83752 -0.68614,11.81977 0.20316,15.4186 1.94642,7.8768 7.28064,14.6509 14.36267,18.23964 5.26068,2.66579 13.25593,3.42119 19.44812,1.8375 z m 114.34183,-0.27054 c 8.9881,-2.66827 16.58732,-10.10319 19.14813,-18.73414 0.95988,-3.23517 1.30472,-9.72836 0.71644,-13.48995 -0.98664,-6.3087 -5.05756,-13.53754 -9.66449,-17.16146 -5.02625,-3.95377 -10.36661,-5.69374 -17.47531,-5.69374 -10.80089,0 -20.10782,5.08536 -25.16834,13.75214 -2.85064,4.88207 -3.27338,6.68171 -3.26909,13.91686 0.004,6.07014 0.059,6.48033 1.31761,9.76128 3.5177,9.16981 10.42887,15.58153 19.04582,17.66945 3.50688,0.84973 12.45821,0.83781 15.34923,-0.0204 z m -161.92908,-66.7085 c 1.65388,-1.15843 1.90106,-3.14532 2.11062,-16.96553 l 0.19979,-13.17612 -1.0808,-1.0808 c -0.8391,-0.8391 -1.50576,-1.0808 -2.98105,-1.0808 -1.04514,0 -2.36466,0.2116 -2.93228,0.47022 -1.02317,0.46619 -1.03471,0.53785 -1.34381,8.34294 -0.32094,8.10421 -0.0232,18.045 0.62579,20.89325 0.20238,0.88824 0.69946,1.98128 1.10461,2.42896 0.89092,0.98446 3.01293,1.06736 4.29713,0.16788 z m 29.97817,-38.62221 c 4.02432,-0.46275 5.91974,-1.29781 6.28946,-2.77092 0.46604,-1.85682 -0.15276,-3.09124 -2.05296,-4.09545 -1.62329,-0.85786 -2.50245,-0.95967 -9.51396,-1.10177 -8.27846,-0.16777 -12.22821,0.26425 -14.90611,1.63041 -1.77044,0.90321 -2.27822,1.92386 -1.87361,3.76601 0.37983,1.72937 1.26132,2.3052 3.97666,2.59776 3.87037,0.41701 14.35892,0.4019 18.08052,-0.026 z"
         id="path53509"
         transform="scale(0.26458333)"
         sodipodi:nodetypes="ssssssscccssscsscssssssssasssssssssssssssssssssscsssssscssssssssssssssss" /><path
         style="fill:#fed16c;fill-opacity:1;stroke-width:1.91589;stroke-linecap:round;stroke-linejoin:round"
         d="m 382.3478,659.30687 -44.30398,-0.11266 -2.79669,-1.99472 c -5.96224,-4.25254 -8.06817,-7.38902 -9.15985,-13.6423 -1.03982,-5.95624 -1.44259,-20.04849 -1.70809,-59.76238 l -0.25981,-38.86333 1.56283,-4.43549 c 2.3993,-6.80947 4.41196,-9.50746 9.81176,-13.15276 l 3.04352,-2.05463 h 83.7282 83.72821 l 3.41654,1.99083 c 4.64507,2.70669 7.87387,5.9717 9.07185,9.17357 2.55831,6.8377 3.1997,21.2023 2.84947,63.81648 -0.31797,38.68942 -0.72308,44.2284 -3.68301,50.35675 -1.52798,3.16359 -3.68285,5.11285 -7.98997,7.22757 l -3.1682,1.55553 -39.9194,0.005 c -21.95567,0.003 -59.85619,-0.0456 -84.22338,-0.10757 z m 101.60519,-51.30079 c 3.29791,-0.87849 5.85934,-2.47976 8.14786,-5.09357 3.24679,-3.70831 3.62516,-5.28987 4.11886,-17.21677 0.23563,-5.69222 0.32746,-14.53151 0.20406,-19.64288 -0.24319,-10.07373 -0.62814,-12.34932 -2.82534,-16.70196 -3.56858,-7.06932 -7.88528,-8.61104 -25.97118,-9.27566 -14.55464,-0.53485 -86.41341,-0.52657 -93.77891,0.0108 -14.20878,1.03666 -19.53573,3.20071 -22.42739,9.11105 -1.06646,2.17976 -1.1286,2.70221 -1.51444,12.7326 -0.2213,5.75276 -0.34255,16.44748 -0.26945,23.76604 0.12752,12.76666 0.17109,13.38392 1.07405,15.21589 1.19821,2.43098 3.90449,5.08516 6.87377,6.74144 l 2.32335,1.29598 60.82956,-0.15375 c 52.47035,-0.13262 61.1574,-0.24107 63.2152,-0.78922 z"
         id="path56478"
         transform="scale(0.26458333)" /><path
         style="fill:#fed16c;fill-opacity:1;stroke-width:1.91589;stroke-linecap:round;stroke-linejoin:round"
         d="m 327.83646,721.26987 c -1.46545,-0.24535 -2.46326,-0.73231 -3.37942,-1.64923 -1.19718,-1.19818 -1.29912,-1.52587 -1.28889,-4.14326 0.009,-2.41447 0.22702,-3.24347 1.44584,-5.50879 1.78206,-3.31219 4.54518,-5.83708 8.55285,-7.81546 5.25798,-2.59559 5.51839,-2.61854 29.06475,-2.56152 21.87852,0.053 32.0272,0.53142 36.0004,1.69717 4.13617,1.21356 9.06893,7.82237 9.50115,12.72946 0.21659,2.45889 -1.19986,5.52289 -2.93328,6.34514 -0.64743,0.30711 -4.07406,0.71806 -7.81491,0.93722 -8.16422,0.47833 -66.26225,0.4525 -69.14849,-0.0307 z"
         id="path56480"
         transform="scale(0.26458333)" /><path
         style="fill:#fed16c;fill-opacity:1;stroke-width:1.91589;stroke-linecap:round;stroke-linejoin:round"
         d="m 442.07038,722.31905 c -4.77887,-0.85944 -5.74074,-2.08496 -5.39784,-6.87742 0.3771,-5.27055 3.58663,-10.52578 7.62421,-12.4838 4.48068,-2.1729 7.47333,-2.42434 31.64174,-2.65852 26.90723,-0.26073 32.11333,0.0382 35.91072,2.06223 6.72011,3.58178 11.15415,12.21483 8.89584,17.32013 l -0.84503,1.91031 -14.51963,0.2719 c -20.4671,0.38326 -62.04755,0.68221 -63.31001,0.45517 z"
         id="path56482"
         transform="scale(0.26458333)" /><path
         style="fill:#fed16c;fill-opacity:1;stroke-width:1.91589;stroke-linecap:round;stroke-linejoin:round"
         d="m 560.51763,644.34765 c -0.79095,-0.38345 -0.91852,-0.92102 -1.16168,-4.89504 -0.15023,-2.45536 -0.26749,-7.99894 -0.26058,-12.31909 l 0.0126,-7.8548 2.62158,-1.47849 c 3.5589,-2.00713 8.64145,-7.10941 10.80783,-10.84981 2.16647,-3.74057 4.49173,-10.62593 5.10937,-15.12949 0.25491,-1.85868 0.56338,-3.99898 0.6855,-4.75624 l 0.22202,-1.37682 1.6943,1.36158 c 2.20364,1.7709 5.66766,6.33917 8.42288,11.1079 3.97554,6.88085 3.92114,6.67507 3.90848,14.78496 -0.008,5.13013 -0.20657,7.99488 -0.69517,10.02982 -1.38168,5.75446 -4.97478,11.15044 -9.75491,14.64955 -2.07633,1.5199 -6.65216,4.25691 -7.11685,4.25691 -0.42299,0 -1.52433,-3.5502 -2.22777,-7.18126 -0.90152,-4.65357 -1.60438,-6.33642 -2.64647,-6.33642 -1.04937,0 -1.49311,1.17492 -2.63238,6.97006 -1.09813,5.58583 -1.83699,7.55683 -3.24919,8.66767 -1.15708,0.91016 -2.35199,1.02168 -3.73952,0.34901 z"
         id="path56484"
         transform="scale(0.26458333)" /><path
         style="fill:#fed16c;fill-opacity:1;stroke-width:1.91589;stroke-linecap:round;stroke-linejoin:round"
         d="m 277.3535,644.28044 c -0.21192,-0.55741 -0.2154,-2.32763 -0.008,-4.11867 0.50242,-4.34066 0.48585,-8.74026 -0.0366,-9.71649 -0.55482,-1.03667 -1.75769,-1.04764 -2.68365,-0.0245 -0.39453,0.43595 -1.58,2.76458 -2.63439,5.17474 -2.34644,5.3636 -2.69021,5.78407 -3.98659,4.87605 -1.49201,-1.04504 -11.47449,-10.8851 -12.7702,-12.58801 -4.4163,-5.80418 -2.4298,-22.22471 3.91237,-32.33984 3.2011,-5.10543 7.19098,-9.56962 7.91014,-8.85047 0.16682,0.16683 0.42963,1.86337 1.37104,8.85071 1.36981,10.16697 6.89976,18.42249 14.84512,22.16188 l 3.34192,1.57284 -0.002,2.32335 c -0.004,3.49419 -0.75473,13.68028 -1.3055,17.70614 -0.53929,3.94196 -1.38396,5.20028 -3.81748,5.68699 -2.60063,0.52012 -3.74105,0.32303 -4.13562,-0.71476 z"
         id="path56486"
         transform="scale(0.26458333)" /><path
         style="fill:#fed16c;fill-opacity:1;stroke-width:1.91589;stroke-linecap:round;stroke-linejoin:round"
         d="m 338.17314,275.50514 c -2.02041,-0.6441 -4.36935,-3.12719 -5.02344,-5.31034 -0.59149,-1.9742 -0.34966,-4.58211 0.5964,-6.43172 0.8292,-1.62115 3.32218,-3.65311 5.15605,-4.20255 3.02489,-0.90628 7.06606,0.937 8.87198,4.04672 1.41967,2.44462 1.17482,6.24189 -0.56384,8.74419 -2.15243,3.09782 -5.52292,4.27402 -9.03715,3.1537 z"
         id="path56488"
         transform="scale(0.26458333)" /><path
         style="fill:#322d47;fill-opacity:1;stroke-width:1.91589;stroke-linecap:round;stroke-linejoin:round"
         d="m 602.07542,419.8681 c -1.36306,-0.73971 -2.01715,-1.82748 -2.01715,-3.35458 0,-1.68109 0.68509,-2.62753 2.28388,-3.15518 1.60689,-0.53032 3.75969,0.0932 4.84647,1.40361 0.86482,1.04279 0.31319,3.66061 -1.01445,4.81417 -1.25886,1.09381 -2.46313,1.1796 -4.09875,0.29198 z"
         id="path56490"
         transform="scale(0.26458333)" /><path
         style="fill:#322d47;fill-opacity:1;stroke-width:1.91589;stroke-linecap:round;stroke-linejoin:round"
         d="m 363.07644,465.29478 c -7.36562,-1.16001 -12.7235,-5.67008 -15.22582,-12.81653 -2.9299,-8.36758 -0.002,-17.84863 6.99935,-22.66574 3.18062,-2.18832 6.60916,-3.05443 11.39468,-2.87848 3.82329,0.14057 4.53423,0.30261 7.48963,1.70701 4.12608,1.96072 7.00679,4.6411 8.89027,8.27203 1.91201,3.68596 2.57624,6.64612 2.31393,10.31219 -0.46205,6.45788 -6.40265,15.13161 -11.72569,17.12041 -2.81735,1.05263 -6.99519,1.44382 -10.13635,0.94911 z m -0.60654,-20.46272 c 1.52626,-0.63771 3.11203,-3.23402 3.13183,-5.1276 0.0445,-4.25215 -4.89099,-6.71641 -8.71648,-4.35213 -3.51793,2.1742 -3.55492,7.58942 -0.0651,9.52599 1.3133,0.72877 3.84441,0.70805 5.64971,-0.0463 z"
         id="path57389"
         transform="scale(0.26458333)" /><path
         style="fill:#ff8a5e;fill-opacity:1;stroke-width:1.91589;stroke-linecap:round;stroke-linejoin:round"
         d="m 304.40478,600.0238 c -6.6515,-1.30628 -13.21303,-7.32102 -15.3522,-14.07284 -2.48533,-7.84446 1.83359,-16.56164 10.23731,-20.66266 4.0859,-1.99393 7.25509,-2.79306 12.356,-3.11566 l 4.11867,-0.26047 v 19.28426 19.28427 l -4.75231,-0.0463 c -2.61377,-0.0254 -5.58713,-0.21023 -6.60747,-0.41061 z"
         id="path57391"
         transform="scale(0.26458333)" /><path
         style="fill:#ff8a5e;fill-opacity:1;stroke-width:1.91589;stroke-linecap:round;stroke-linejoin:round"
         d="m 530.35742,580.88017 3.1e-4,-18.96689 3.69624,0.27454 c 7.73316,0.57437 13.49613,2.828 17.996,7.03741 8.17893,7.65098 7.86533,17.26918 -0.86427,26.5075 l -3.29723,3.48938 -8.76568,0.31247 -8.76568,0.31248 z"
         id="path58152"
         transform="scale(0.26458333)" /><path
         style="fill:#5ae2f4;fill-opacity:1;stroke-width:1.91589;stroke-linecap:round;stroke-linejoin:round"
         d="m 455.16564,680.3188 v -11.52758 l 20.29082,0.21648 c 11.15995,0.11906 20.4087,0.33436 20.55279,0.47844 0.14408,0.14409 0.37526,4.98777 0.51373,10.76374 l 0.25177,10.50176 -16.26346,0.27968 c -8.94491,0.15382 -18.30696,0.40014 -20.80456,0.54737 l -4.54109,0.26768 z"
         id="path58154"
         transform="scale(0.26458333)" /><path
         style="fill:#ff8a5e;fill-opacity:1;stroke-width:1.91589;stroke-linecap:round;stroke-linejoin:round"
         d="m 601.47584,419.10283 c -1.54008,-1.32472 -1.63362,-3.79648 -0.18797,-4.96709 2.21617,-1.79454 5.95167,-0.31867 5.95167,2.35147 0,3.24768 -3.29205,4.74164 -5.7637,2.61562 z"
         id="path59812"
         transform="scale(0.26458333)" /><path
         style="fill:#ff8a5e;fill-opacity:1;stroke-width:1.91589;stroke-linecap:round;stroke-linejoin:round"
         d="m 496.97789,306.45608 c -0.46705,-0.8727 -1.47911,-18.06481 -1.32732,-22.54761 0.0898,-2.65285 1.22867,-4.68389 2.62635,-4.68389 2.35574,0 3.77097,5.94266 3.77252,15.84103 10e-4,8.32188 -1.01792,11.87326 -3.49274,12.17011 -0.7699,0.0924 -1.23507,-0.13736 -1.57881,-0.77964 z"
         id="path59952"
         transform="scale(0.26458333)" /></g><g
       id="g74869"
       style="display:none;fill:#ffffff"
       inkscape:label="letters"><g
         aria-label=" "
         transform="scale(0.88364131,1.1316809)"
         id="text60008"
         style="font-size:27.9117px;line-height:1.25;fill:#ffffff;stroke-width:0.697795"><path
           d="m 182.56565,116.97535 q -0.83735,-0.97691 -1.87008,-2.1492 -1.00482,-1.2002 -2.03756,-2.40041 -1.00482,-1.22811 -1.98173,-2.4004 -0.94899,-1.17229 -1.70261,-2.12129 h 3.15402 q 0.61406,0.78153 1.45141,1.84217 0.86526,1.06065 1.81426,2.23294 0.97691,1.14438 1.95382,2.34458 1.00482,1.17229 1.89799,2.20502 v -8.62471 h 2.59579 v 8.62471 q 0.86527,-1.03273 1.84218,-2.20502 1.00482,-1.2002 1.95381,-2.37249 0.97691,-1.1723 1.84218,-2.20503 0.86526,-1.06064 1.47932,-1.84217 h 3.12611 q -0.75362,0.949 -1.73053,2.12129 -0.949,1.17229 -1.98173,2.4004 -1.00482,1.20021 -2.00964,2.3725 -1.00482,1.17229 -1.84217,2.1492 1.11646,1.00482 2.23293,2.26085 1.11647,1.22811 2.1492,2.56787 1.06065,1.33977 1.98173,2.73535 0.92109,1.39559 1.64679,2.73535 h -3.07028 q -0.75362,-1.28394 -1.70262,-2.56788 -0.94899,-1.31185 -1.95382,-2.51205 -1.00482,-1.22812 -2.03755,-2.28876 -1.00482,-1.06065 -1.92591,-1.87009 v 9.23878 h -2.59579 v -9.23878 q -0.92108,0.80944 -1.95381,1.87009 -1.03274,1.06064 -2.03756,2.28876 -1.00482,1.2002 -1.95382,2.51205 -0.92108,1.28394 -1.6747,2.56788 h -3.04237 q 0.69779,-1.33976 1.61887,-2.73535 0.92109,-1.39558 1.95382,-2.73535 1.06065,-1.33976 2.17712,-2.56787 1.14438,-1.22812 2.23293,-2.23294 z"
           style="font-family:Ubuntu;-inkscape-font-specification:Ubuntu;fill:#ffffff"
           id="path75306" /></g><g
         aria-label="a"
         transform="scale(1.1011571,0.90813564)"
         id="text62240"
         style="font-size:30.7876px;line-height:1.25;fill:#ffffff;stroke-width:0.769693"><path
           d="m 139.24989,67.606706 q -3.35236,0 -4.6452,0.766684 -1.29284,0.766683 -1.29284,2.615743 0,1.473235 0.96211,2.345149 0.97715,0.856882 2.64581,0.856882 2.30005,0 3.68309,-1.623565 1.39807,-1.638598 1.39807,-4.344539 v -0.616354 z m 5.51711,-1.142508 v 9.606092 h -2.76607 v -2.555612 q -0.94708,1.533367 -2.36018,2.269984 -1.41311,0.721585 -3.4576,0.721585 -2.58567,0 -4.11904,-1.443169 -1.51833,-1.458202 -1.51833,-3.893549 0,-2.841238 1.89416,-4.284407 1.90919,-1.443169 5.68247,-1.443169 h 3.87852 v -0.270594 q 0,-1.909192 -1.26277,-2.946469 -1.24774,-1.052311 -3.51773,-1.052311 -1.44317,0 -2.81117,0.345759 -1.368,0.345759 -2.63078,1.037278 v -2.555612 q 1.51834,-0.586287 2.94647,-0.871914 1.42814,-0.30066 2.78111,-0.30066 3.65302,0 5.45698,1.894159 1.80396,1.894159 1.80396,5.742609 z"
           id="path75303"
           style="fill:#ffffff" /></g><g
         aria-label=""
         transform="scale(1.1645775,0.8586805)"
         id="text70956"
         style="font-size:29.4355px;line-height:1.25;fill:#ffffff;stroke-width:0.735888"><path
           d="m 140.22191,115.52136 h 10.49215 v 2.44338 h -13.82664 v -2.44338 l 6.88457,-8.96863 -6.88457,-7.603211 v -2.443376 h 13.56793 v 2.443376 h -10.23344 l 6.88458,7.545721 z"
           id="path75300"
           style="fill:#ffffff" /></g><g
         aria-label=""
         transform="scale(0.97122361,1.029629)"
         id="text71686"
         style="font-size:29.6181px;line-height:1.25;fill:#ffffff;stroke-width:0.740454"><path
           d="m 130.1042,44.221114 h -11.87686 v -3.879971 h -2.19174 v 3.879971 h -11.72876 v 2.132503 h 25.79736 z m -9.41855,4.265006 c 2.81372,1.954795 6.19018,4.798132 7.75994,6.723309 l 1.92517,-1.510523 c -1.68823,-1.954795 -5.15355,-4.67966 -7.93765,-6.5456 z m -8.8262,-1.214342 c -1.8067,2.48792 -4.88698,4.946223 -7.78956,6.486364 0.56275,0.385035 1.39205,1.273578 1.80671,1.747468 2.84333,-1.777086 6.16056,-4.561188 8.20421,-7.374907 z m 9.59627,5.064695 c -0.9774,2.665629 -2.39907,4.857368 -4.20577,6.664072 -1.80671,-1.836322 -3.22838,-3.998443 -4.20577,-6.515982 l -2.10289,0.651599 c 1.15511,2.872955 2.69525,5.301639 4.62042,7.345288 -3.08028,2.399066 -7.10834,3.968826 -11.90647,4.975841 0.47389,0.503508 1.18472,1.540141 1.39205,2.073267 4.79813,-1.214342 8.88543,-2.932192 12.14342,-5.508967 3.13952,2.636011 7.1972,4.442715 12.20266,5.390494 0.29618,-0.592362 0.94778,-1.599377 1.45128,-2.073266 -4.88698,-0.799689 -8.88543,-2.428685 -11.93609,-4.857369 2.04365,-2.01403 3.67264,-4.472333 4.82775,-7.493379 z"
           id="path75297"
           style="fill:#ffffff" /></g><g
         aria-label=""
         transform="scale(0.98468199,1.0155563)"
         id="text73142"
         style="font-size:31.2855px;line-height:1.25;fill:#ffffff;stroke-width:0.782142"><path
           d="m 46.397357,133.78224 v -3.22241 h 7.164379 v 3.22241 z m 0,-8.25937 h 7.164379 v 3.19112 h -7.164379 z m 16.831599,0 v 3.19112 h -7.320807 v -3.19112 z m 0,8.25937 h -7.320807 v -3.22241 h 7.320807 z m 5.600104,4.47383 H 55.908149 v -2.56541 h 9.635933 v -12.10749 h -9.635933 v -2.28384 h 11.857204 v -2.12742 H 55.908149 v -2.81569 h -2.346413 v 2.81569 H 41.860959 v 2.12742 h 11.700777 v 2.28384 h -9.38565 v 12.10749 h 9.38565 v 2.56541 H 40.922394 v 2.09613 h 12.639342 v 4.63025 h 2.346413 V 140.3522 H 68.82906 Z"
           id="path75294"
           style="fill:#ffffff" /></g><g
         aria-label=" "
         transform="scale(0.93491191,1.0696195)"
         id="text74598"
         style="font-size:29.105px;line-height:1.25;fill:#ffffff;stroke-width:0.727626"><path
           d="m 52.14595,76.0847 q -2.046445,0 -4.263428,-2.728594 -2.216982,-2.757016 -3.865508,-7.304672 l 1.705372,-0.738995 q 1.449565,4.036045 3.211782,6.480411 1.762216,2.415942 3.211782,2.415942 0.937954,0 1.59168,-0.710571 0.682148,-0.738995 0.682148,-1.762217 0,-1.620103 -0.852686,-3.325474 -0.824262,-1.733794 -2.359096,-3.29705 h 8.128935 v -3.9792 H 42.993792 V 59.428909 H 64.453044 V 61.13428 H 61.241262 V 78.358528 H 59.336931 V 67.017811 h -4.547656 q 0.767417,1.051645 1.136914,2.273828 0.369497,1.193759 0.369497,2.444365 0,1.819062 -1.222182,3.098091 -1.19376,1.250605 -2.927554,1.250605 z"
           id="path75287"
           style="fill:#ffffff" /><path
           d="m 59.706428,85.549509 q -1.620102,0 -2.785439,-1.193759 -1.19376,-1.165337 -1.19376,-2.78544 0,-1.875908 1.39272,-3.211782 1.364296,-1.335874 3.325473,-1.335874 2.472788,0 4.746616,2.131714 2.302251,2.160137 3.58128,5.627724 l -1.676949,0.767417 q -1.108491,-2.984399 -2.927553,-4.803461 -1.819063,-1.819063 -3.723394,-1.819063 -1.165337,0 -1.989599,0.767417 -0.824263,0.79584 -0.824263,1.875908 0,0.881109 0.59688,1.477989 0.59688,0.596879 1.477988,0.596879 0.454766,0 0.9948,-0.255805 0.540034,-0.227383 1.080068,-0.682149 l 0.937954,1.705371 q -0.79584,0.568457 -1.563257,0.852686 -0.767417,0.284228 -1.449565,0.284228 z"
           id="path75289"
           style="fill:#ffffff" /><path
           d="m 64.623581,67.017811 q 0,-0.39792 0.39792,-0.682149 0.39792,-0.284228 0.937954,-0.284228 H 75.964299 V 61.13428 H 63.685627 V 59.428909 H 81.080412 V 61.13428 H 77.86863 V 78.358528 H 75.964299 V 67.955765 h -5.48561 q -0.454766,0 -0.79584,0.227382 -0.341074,0.227383 -0.341074,0.511612 v 1.904331 q 0,0.454765 -0.284229,0.79584 -0.284228,0.341074 -0.653725,0.341074 -0.653726,0 -2.216983,-1.961177 -1.563257,-1.989599 -1.563257,-2.757016 z"
           id="path75291"
           style="fill:#ffffff" /></g></g><g
       aria-label="robo
translator"
       transform="scale(0.99325431,1.0067915)"
       id="text75311"
       style="font-weight:500;font-size:79.7246px;line-height:0.8;font-family:Dosis;-inkscape-font-specification:'Dosis, Medium';letter-spacing:0px;fill:#241f1c;stroke-width:0.415233"><path
         d="m 171.20596,73.055286 c 1.35532,0 2.55119,-1.355318 2.55119,-2.94981 0,-1.594492 -1.19587,-3.029535 -2.55119,-3.029535 h -2.71063 c -4.94293,0 -8.68999,3.268709 -10.44393,6.537418 v -3.747057 c 0,-1.355318 -1.35532,-2.312013 -3.02953,-2.312013 -1.91339,0 -3.26871,0.956695 -3.26871,2.312013 v 33.085708 c 0,1.19587 1.35532,2.39174 3.26871,2.39174 1.83366,0 3.34843,-1.19587 3.34843,-2.39174 V 84.774803 c 0,-7.254939 5.02265,-11.719517 10.12503,-11.719517 z"
         id="path229" /><path
         d="m 192.25329,67.075941 c -8.61025,0 -15.70574,7.175214 -15.70574,15.307124 v 8.131909 c 0,8.131909 7.25494,15.466576 15.70574,15.466576 8.45081,0 15.78548,-7.414391 15.78548,-15.466576 v -8.131909 c 0,-8.371083 -7.33467,-15.307124 -15.78548,-15.307124 z m 9.16833,23.439033 c 0,4.863201 -4.14568,9.487226 -9.16833,9.487226 -5.02265,0 -9.0886,-4.624025 -9.0886,-9.487226 v -8.131909 c 0,-4.703752 3.98623,-9.327779 9.0886,-9.327779 5.10238,0 9.16833,4.624027 9.16833,9.327779 z"
         id="path231" /><path
         d="m 219.3596,44.753053 c -1.91339,0 -3.26871,0.956695 -3.26871,2.312013 v 55.886944 c 0,1.19587 1.35532,2.39174 3.26871,2.39174 1.67422,0 3.02954,-1.19587 3.02954,-2.39174 v -3.188982 c 1.67422,3.268712 5.97934,6.218522 11.00199,6.218522 7.49412,0 14.03153,-7.414391 14.03153,-15.466576 v -8.131909 c 0,-8.371083 -6.45769,-15.307124 -14.2707,-15.307124 -5.10237,0 -8.68998,2.94981 -10.44392,6.05907 V 47.065066 c 0,-1.355318 -1.51477,-2.312013 -3.34844,-2.312013 z m 21.44592,45.761921 c 0,4.783476 -4.14568,9.487226 -9.00888,9.487226 -5.1821,0 -9.0886,-5.182097 -9.0886,-7.334662 V 82.383065 c 0,-5.819896 4.5443,-9.327779 9.00888,-9.327779 5.02265,0 9.0886,4.624027 9.0886,9.327779 z"
         id="path233" /><path
         d="m 269.66579,67.075941 c -8.61026,0 -15.70575,7.175214 -15.70575,15.307124 v 8.131909 c 0,8.131909 7.25494,15.466576 15.70575,15.466576 8.4508,0 15.78547,-7.414391 15.78547,-15.466576 v -8.131909 c 0,-8.371083 -7.33467,-15.307124 -15.78547,-15.307124 z m 9.16832,23.439033 c 0,4.863201 -4.14567,9.487226 -9.16832,9.487226 -5.02265,0 -9.08861,-4.624025 -9.08861,-9.487226 v -8.131909 c 0,-4.703752 3.98623,-9.327779 9.08861,-9.327779 5.10237,0 9.16832,4.624027 9.16832,9.327779 z"
         id="path235" /><path
         d="m 158.21085,136.51607 h 10.0453 c 1.19587,0 1.99312,-1.19587 1.99312,-2.55119 0,-1.35532 -0.79725,-2.63091 -1.99312,-2.63091 h -10.0453 v -15.30712 c 0,-1.35532 -1.67421,-2.31202 -3.34843,-2.31202 -1.51477,0 -3.26871,0.9567 -3.26871,2.31202 v 41.05817 c 0,8.37108 4.62403,12.03841 13.23428,12.03841 h 2.47147 c 1.83366,0 2.87008,-1.43504 2.87008,-2.94981 0,-1.51477 -1.03642,-2.87008 -2.87008,-2.87008 h -2.47147 c -4.94292,0 -6.61714,-1.67422 -6.61714,-6.21852 z"
         id="path237" /><path
         d="m 195.92055,136.83497 c 1.35531,0 2.55118,-1.35532 2.55118,-2.94981 0,-1.59449 -1.19587,-3.02954 -2.55118,-3.02954 h -2.71064 c -4.94293,0 -8.68998,3.26871 -10.44392,6.53742 v -3.74706 c 0,-1.35531 -1.35532,-2.31201 -3.02954,-2.31201 -1.91339,0 -3.26871,0.9567 -3.26871,2.31201 v 33.08571 c 0,1.19587 1.35532,2.39174 3.26871,2.39174 1.83367,0 3.34844,-1.19587 3.34844,-2.39174 v -18.1772 c 0,-7.25494 5.02265,-11.71952 10.12502,-11.71952 z"
         id="path239" /><path
         d="m 215.29362,130.85562 c -5.26183,0 -11.3209,2.15257 -11.3209,4.62403 0,1.43504 0.87697,3.34843 2.47147,3.34843 1.43504,0 3.10926,-2.31201 8.68998,-2.31201 6.37797,0 8.7697,5.1821 8.7697,9.88585 v 1.67422 h -3.82678 c -11.08172,0 -18.65555,2.23229 -18.65555,11.08172 0,7.25494 4.78347,10.60337 10.76282,10.60337 5.34155,0 9.24805,-3.02954 12.03841,-6.21852 v 3.18898 c 0,1.35532 1.2756,2.39174 3.02954,2.39174 1.91339,0 3.26871,-1.03642 3.26871,-2.39174 V 146.3222 c 0,-7.97246 -4.06596,-15.46658 -15.2274,-15.46658 z m 8.61025,25.43215 c 0,3.66733 -5.10237,8.13191 -9.64667,8.13191 -3.50789,0 -6.1388,-1.83366 -6.1388,-5.97934 0,-5.66045 6.21852,-6.29825 12.99511,-6.29825 h 2.79036 z"
         id="path241" /><path
         d="m 246.22675,146.16275 c 0,-5.8199 4.38486,-9.32778 8.68999,-9.32778 4.94292,0 9.0886,4.62403 9.0886,9.32778 v 20.56894 c 0,1.5945 1.67422,2.39174 3.26871,2.39174 1.67422,0 3.34843,-0.79724 3.34843,-2.39174 v -20.56894 c 0,-8.37109 -6.45769,-15.30713 -14.03153,-15.30713 -5.34155,0 -9.0886,2.94981 -10.68309,6.05907 v -3.26871 c 0,-1.35531 -1.43505,-2.31201 -3.02954,-2.31201 -1.91339,0 -3.26871,0.9567 -3.26871,2.31201 v 33.08571 c 0,1.19587 1.35532,2.39174 3.26871,2.39174 1.75394,0 3.34843,-1.19587 3.34843,-2.39174 z"
         id="path243" /><path
         d="m 290.23475,164.41968 c -7.01576,0 -8.68998,-3.74706 -10.52364,-3.74706 -1.35532,0 -2.31202,1.83367 -2.31202,3.02954 0,2.71064 5.42128,6.05907 13.07484,6.05907 8.53053,0 13.31401,-4.14568 13.31401,-10.6831 0,-14.43015 -19.53253,-9.16833 -19.53253,-17.30024 0,-2.39173 1.91339,-5.58072 7.25494,-5.58072 4.62402,0 7.09549,2.31202 8.53053,2.31202 1.59449,0 2.63091,-2.31202 2.63091,-3.34844 0,-2.23229 -5.66045,-4.30513 -11.24117,-4.30513 -9.56695,0 -13.07483,5.89962 -13.07483,11.16145 0,13.23428 19.4528,7.73328 19.4528,17.37996 0,2.55119 -1.83367,5.02265 -7.57384,5.02265 z"
         id="path245" /><path
         d="m 314.9494,108.53274 c -1.91339,0 -3.26871,0.95669 -3.26871,2.31201 v 55.88694 c 0,1.19587 1.35532,2.39174 3.26871,2.39174 1.83366,0 3.34843,-1.19587 3.34843,-2.39174 v -55.88694 c 0,-1.35532 -1.51477,-2.31201 -3.34843,-2.31201 z"
         id="path247" /><path
         d="m 339.82346,130.85562 c -5.26183,0 -11.3209,2.15257 -11.3209,4.62403 0,1.43504 0.87697,3.34843 2.47146,3.34843 1.43505,0 3.10926,-2.31201 8.68999,-2.31201 6.37796,0 8.7697,5.1821 8.7697,9.88585 v 1.67422 h -3.82678 c -11.08172,0 -18.65556,2.23229 -18.65556,11.08172 0,7.25494 4.78348,10.60337 10.76283,10.60337 5.34154,0 9.24805,-3.02954 12.03841,-6.21852 v 3.18898 c 0,1.35532 1.27559,2.39174 3.02954,2.39174 1.91339,0 3.2687,-1.03642 3.2687,-2.39174 V 146.3222 c 0,-7.97246 -4.06595,-15.46658 -15.22739,-15.46658 z m 8.61025,25.43215 c 0,3.66733 -5.10237,8.13191 -9.64667,8.13191 -3.50789,0 -6.1388,-1.83366 -6.1388,-5.97934 0,-5.66045 6.21852,-6.29825 12.99511,-6.29825 h 2.79036 z"
         id="path249" /><path
         d="m 370.59716,136.51607 h 10.0453 c 1.19587,0 1.99311,-1.19587 1.99311,-2.55119 0,-1.35532 -0.79724,-2.63091 -1.99311,-2.63091 h -10.0453 v -15.30712 c 0,-1.35532 -1.67422,-2.31202 -3.34843,-2.31202 -1.51477,0 -3.26871,0.9567 -3.26871,2.31202 v 41.05817 c 0,8.37108 4.62402,12.03841 13.23428,12.03841 h 2.47146 c 1.83367,0 2.87009,-1.43504 2.87009,-2.94981 0,-1.51477 -1.03642,-2.87008 -2.87009,-2.87008 h -2.47146 c -4.94292,0 -6.61714,-1.67422 -6.61714,-6.21852 z"
         id="path251" /><path
         d="m 402.487,130.85562 c -8.61026,0 -15.70575,7.17522 -15.70575,15.30713 v 8.13191 c 0,8.13191 7.25494,15.46657 15.70575,15.46657 8.45081,0 15.78547,-7.41439 15.78547,-15.46657 v -8.13191 c 0,-8.37109 -7.33466,-15.30713 -15.78547,-15.30713 z m 9.16833,23.43904 c 0,4.8632 -4.14568,9.48722 -9.16833,9.48722 -5.02265,0 -9.08861,-4.62402 -9.08861,-9.48722 v -8.13191 c 0,-4.70375 3.98623,-9.32778 9.08861,-9.32778 5.10237,0 9.16833,4.62403 9.16833,9.32778 z"
         id="path253" /><path
         d="m 445.69769,136.83497 c 1.35532,0 2.55119,-1.35532 2.55119,-2.94981 0,-1.59449 -1.19587,-3.02954 -2.55119,-3.02954 h -2.71063 c -4.94293,0 -8.68999,3.26871 -10.44393,6.53742 v -3.74706 c 0,-1.35531 -1.35532,-2.31201 -3.02953,-2.31201 -1.91339,0 -3.26871,0.9567 -3.26871,2.31201 v 33.08571 c 0,1.19587 1.35532,2.39174 3.26871,2.39174 1.83366,0 3.34843,-1.19587 3.34843,-2.39174 v -18.1772 c 0,-7.25494 5.02265,-11.71952 10.12503,-11.71952 z"
         id="path255" /></g></g></svg>
